<?xml version="1.0" encoding="iso-8859-1"?>
<!-- Generator: Adobe Illustrator 19.0.0, SVG Export Plug-In . SVG Version: 6.00 Build 0)  -->
<svg version="1.1" id="Layer_1" xmlns="http://www.w3.org/2000/svg" xmlns:xlink="http://www.w3.org/1999/xlink" x="0px" y="0px"
	 viewBox="0 0 512 512" style="enable-background:new 0 0 512 512;" xml:space="preserve">
<path d="M483.248,44.88C499.056,44.88,512,57.824,512,73.632V467.12H0V73.632C0,57.824,12.944,44.88,28.752,44.88
	C28.752,44.88,483.248,44.88,483.248,44.88z"/>
<g style="opacity:0.2;">
	<path style="fill:#FFFFFF;" d="M28.752,44.88C12.944,44.88,0,57.824,0,73.632v25.44h115.888L147.04,44.88H28.752z"/>
</g>
<g>
	<circle style="fill:#999999;" cx="40.528" cy="71.968" r="8.192"/>
	<circle style="fill:#999999;" cx="65.088" cy="71.968" r="8.192"/>
	<circle style="fill:#999999;" cx="89.648" cy="71.968" r="8.192"/>
</g>
<polygon style="fill:#FFFFFF;" points="471.488,67.168 468.64,69.984 475.76,77.088 458.224,77.088 458.224,81.088 475.76,81.088 
	468.64,88.192 471.488,91.024 483.408,79.088 "/>
<rect x="155.472" y="88.944" style="fill:#E21B1B;" width="281.984" height="3.184"/>
<polygon style="fill:#999999;" points="426.72,67.952 419.056,77.856 411.408,67.952 "/>
<path d="M498,453.12H14V113.088h484V453.12z M18,449.12h476V117.088H18V449.12z"/>
<path style="fill:#666666;" d="M497.584,452.72H14.4V113.504h483.184L497.584,452.72z M17.584,449.536H494.4V116.688H17.584V449.536
	z"/>
<g>
	<path style="fill:#FFFFFF;" d="M179.36,80.496l-4.608-15.04h2.64l2.4,8.688l0.896,3.232c0.032-0.16,0.304-1.2,0.784-3.104
		l2.384-8.816h2.624l2.256,8.72l0.752,2.88l0.864-2.912l2.576-8.688h2.48l-4.704,15.04h-2.656l-2.384-9.008l-0.592-2.56
		l-3.04,11.584h-2.672V80.496z"/>
	<path style="fill:#FFFFFF;" d="M200.336,80.496l-4.608-15.04h2.64l2.4,8.688l0.896,3.232c0.032-0.16,0.304-1.2,0.784-3.104
		l2.384-8.816h2.624l2.256,8.72l0.752,2.88l0.864-2.912l2.576-8.688h2.48l-4.704,15.04h-2.656l-2.384-9.008l-0.592-2.56
		l-3.04,11.584h-2.672V80.496z"/>
	<path style="fill:#FFFFFF;" d="M221.28,80.496l-4.608-15.04h2.64l2.4,8.688l0.896,3.232c0.032-0.16,0.304-1.2,0.784-3.104
		l2.384-8.816h2.624l2.256,8.72l0.752,2.88l0.864-2.912l2.576-8.688h2.48l-4.704,15.04h-2.656l-2.384-9.008l-0.592-2.56
		l-3.04,11.584h-2.672V80.496z"/>
	<path style="fill:#FFFFFF;" d="M238.592,80.496v-2.912h2.912v2.912H238.592z"/>
</g>
<polygon style="fill:#E21B1B;" points="317.424,298.88 264.448,242.784 279.856,228.24 316.992,267.552 400.176,174.944 
	415.984,189.072 "/>
<g>
	<circle style="fill:#999999;" cx="180.224" cy="250.592" r="41.552"/>
	<path style="fill:#999999;" d="M178.256,388.72l-40.144-87.024c0,0-42.112,0.56-42.112,39.296s0,47.728,0,47.728
		S178.544,388.72,178.256,388.72z"/>
	<path style="fill:#999999;" d="M182.192,388.72l40.144-87.024c0,0,42.112,0.56,42.112,39.296s0,47.728,0,47.728
		S181.92,388.72,182.192,388.72z"/>
</g>
<polygon style="fill:#FFFFFF;" points="180.224,301.696 151.312,301.696 180.224,365.696 209.152,301.696 "/>
<g>
</g>
<g>
</g>
<g>
</g>
<g>
</g>
<g>
</g>
<g>
</g>
<g>
</g>
<g>
</g>
<g>
</g>
<g>
</g>
<g>
</g>
<g>
</g>
<g>
</g>
<g>
</g>
<g>
</g>
</svg>
