<?xml version="1.0" encoding="iso-8859-1"?>
<!-- Generator: Adobe Illustrator 19.0.0, SVG Export Plug-In . SVG Version: 6.00 Build 0)  -->
<svg version="1.1" id="Layer_1" xmlns="http://www.w3.org/2000/svg" xmlns:xlink="http://www.w3.org/1999/xlink" x="0px" y="0px"
	 viewBox="0 0 512 512" style="enable-background:new 0 0 512 512;" xml:space="preserve">
<path d="M483.248,44.88C499.056,44.88,512,57.824,512,73.632V467.12H0V73.632C0,57.824,12.944,44.88,28.752,44.88
	C28.752,44.88,483.248,44.88,483.248,44.88z"/>
<g style="opacity:0.2;">
	<path style="fill:#FFFFFF;" d="M28.752,44.88C12.944,44.88,0,57.824,0,73.632v25.44h115.888L147.04,44.88H28.752z"/>
</g>
<g>
	<circle style="fill:#999999;" cx="40.528" cy="71.968" r="8.192"/>
	<circle style="fill:#999999;" cx="65.088" cy="71.968" r="8.192"/>
	<circle style="fill:#999999;" cx="89.648" cy="71.968" r="8.192"/>
</g>
<polygon style="fill:#FFFFFF;" points="471.488,67.168 468.64,69.984 475.76,77.088 458.224,77.088 458.224,81.088 475.76,81.088 
	468.64,88.192 471.488,91.024 483.408,79.088 "/>
<rect x="155.472" y="88.944" style="fill:#E21B1B;" width="281.984" height="3.184"/>
<polygon style="fill:#999999;" points="426.72,67.952 419.056,77.856 411.408,67.952 "/>
<path d="M498,453.12H14V113.088h484V453.12z M18,449.12h476V117.088H18V449.12z"/>
<path style="fill:#666666;" d="M497.584,452.72H14.4V113.504h483.184L497.584,452.72z M17.584,449.536H494.4V116.688H17.584V449.536
	z"/>
<g>
	<path style="fill:#FFFFFF;" d="M179.36,80.496l-4.608-15.04h2.64l2.4,8.688l0.896,3.232c0.032-0.16,0.304-1.2,0.784-3.104
		l2.384-8.816h2.624l2.256,8.72l0.752,2.88l0.864-2.912l2.576-8.688h2.48l-4.704,15.04h-2.656l-2.384-9.008l-0.592-2.56
		l-3.04,11.584h-2.672V80.496z"/>
	<path style="fill:#FFFFFF;" d="M200.336,80.496l-4.608-15.04h2.64l2.4,8.688l0.896,3.232c0.032-0.16,0.304-1.2,0.784-3.104
		l2.384-8.816h2.624l2.256,8.72l0.752,2.88l0.864-2.912l2.576-8.688h2.48l-4.704,15.04h-2.656l-2.384-9.008l-0.592-2.56
		l-3.04,11.584h-2.672V80.496z"/>
	<path style="fill:#FFFFFF;" d="M221.28,80.496l-4.608-15.04h2.64l2.4,8.688l0.896,3.232c0.032-0.16,0.304-1.2,0.784-3.104
		l2.384-8.816h2.624l2.256,8.72l0.752,2.88l0.864-2.912l2.576-8.688h2.48l-4.704,15.04h-2.656l-2.384-9.008l-0.592-2.56
		l-3.04,11.584h-2.672V80.496z"/>
	<path style="fill:#FFFFFF;" d="M238.592,80.496v-2.912h2.912v2.912H238.592z"/>
</g>
<g>
	<path style="fill:#E21B1B;" d="M80.16,256.32l48.448-24.96v7.2l-40.832,20.464v0.208l40.832,20.464v7.2l-48.448-24.96V256.32z"/>
	<path style="fill:#E21B1B;" d="M141.92,277.504c2.72,1.776,7.52,3.664,12.112,3.664c6.688,0,9.824-3.344,9.824-7.52
		c0-4.384-2.624-6.784-9.408-9.296c-9.072-3.232-13.36-8.24-13.36-14.288c0-8.144,6.576-14.832,17.44-14.832
		c5.12,0,9.6,1.472,12.432,3.136l-2.304,6.672c-1.984-1.248-5.632-2.912-10.336-2.912c-5.44,0-8.464,3.12-8.464,6.896
		c0,4.176,3.024,6.048,9.6,8.544c8.784,3.344,13.264,7.728,13.264,15.248c0,8.88-6.896,15.152-18.896,15.152
		c-5.536,0-10.64-1.36-14.208-3.456L141.92,277.504z"/>
	<path style="fill:#E21B1B;" d="M220.576,285.024c-2.4,1.248-7.712,2.928-14.496,2.928c-15.248,0-25.184-10.352-25.184-25.792
		c0-15.568,10.656-26.848,27.152-26.848c5.44,0,10.24,1.36,12.736,2.624l-2.08,7.088c-2.192-1.248-5.632-2.4-10.656-2.4
		c-11.584,0-17.856,8.544-17.856,19.104c0,11.696,7.52,18.896,17.536,18.896c5.232,0,8.672-1.36,11.28-2.512L220.576,285.024z"/>
	<path style="fill:#E21B1B;" d="M231.36,252.128c0-5.952-0.112-11.056-0.416-15.76h8.048l0.32,9.92h0.416
		c2.288-6.784,7.824-11.072,14-11.072c1.024,0,1.76,0.112,2.608,0.32v8.656c-0.944-0.208-1.888-0.32-3.12-0.32
		c-6.48,0-11.072,4.912-12.336,11.808c-0.208,1.248-0.416,2.704-0.416,4.272v26.944h-9.104V252.128z"/>
	<path style="fill:#E21B1B;" d="M276.176,222.16c0.112,3.136-2.176,5.648-5.84,5.648c-3.232,0-5.536-2.512-5.536-5.648
		c0-3.232,2.4-5.744,5.744-5.744C273.984,216.416,276.176,218.928,276.176,222.16z M265.952,286.896v-50.544h9.184v50.544H265.952z"
		/>
	<path style="fill:#E21B1B;" d="M290.4,252.864c0-6.48-0.208-11.696-0.416-16.496h8.256l0.416,8.656h0.208
		c3.76-6.16,9.696-9.808,17.952-9.808c12.208,0,21.408,10.336,21.408,25.696c0,18.16-11.072,27.152-22.976,27.152
		c-6.688,0-12.528-2.928-15.568-7.936h-0.192V307.6H290.4V252.864z M299.488,266.336c0,1.36,0.192,2.624,0.4,3.76
		c1.68,6.368,7.2,10.752,13.792,10.752c9.712,0,15.36-7.936,15.36-19.52c0-10.144-5.328-18.8-15.04-18.8
		c-6.272,0-12.112,4.48-13.888,11.376c-0.32,1.152-0.608,2.512-0.608,3.76v8.672H299.488z"/>
	<path style="fill:#E21B1B;" d="M360.912,221.84v14.512h13.152v7.008h-13.152v27.248c0,6.272,1.776,9.824,6.896,9.824
		c2.4,0,4.192-0.32,5.328-0.624l0.416,6.896c-1.76,0.736-4.592,1.248-8.128,1.248c-4.288,0-7.728-1.36-9.92-3.872
		c-2.624-2.704-3.536-7.2-3.536-13.152V243.36h-7.84v-7.008h7.84V224.24L360.912,221.84z"/>
	<path style="fill:#E21B1B;" d="M432.16,262.048l-48.448,24.848v-7.2l41.152-20.464v-0.208l-41.152-20.464v-7.2l48.448,24.848
		V262.048z"/>
</g>
<rect x="80.16" y="327.68" style="fill:#FFFFFF;" width="352" height="11.2"/>
<g>
</g>
<g>
</g>
<g>
</g>
<g>
</g>
<g>
</g>
<g>
</g>
<g>
</g>
<g>
</g>
<g>
</g>
<g>
</g>
<g>
</g>
<g>
</g>
<g>
</g>
<g>
</g>
<g>
</g>
</svg>
