<?xml version="1.0" encoding="iso-8859-1"?>
<!-- Generator: Adobe Illustrator 19.0.0, SVG Export Plug-In . SVG Version: 6.00 Build 0)  -->
<svg version="1.1" id="Layer_1" xmlns="http://www.w3.org/2000/svg" xmlns:xlink="http://www.w3.org/1999/xlink" x="0px" y="0px"
	 viewBox="0 0 512 512" style="enable-background:new 0 0 512 512;" xml:space="preserve">
<path d="M483.248,44.88C499.056,44.88,512,57.824,512,73.632V467.12H0V73.632C0,57.824,12.944,44.88,28.752,44.88
	C28.752,44.88,483.248,44.88,483.248,44.88z"/>
<g style="opacity:0.2;">
	<path style="fill:#FFFFFF;" d="M28.752,44.88C12.944,44.88,0,57.824,0,73.632v25.44h115.888L147.04,44.88H28.752z"/>
</g>
<g>
	<circle style="fill:#999999;" cx="40.528" cy="71.968" r="8.192"/>
	<circle style="fill:#999999;" cx="65.088" cy="71.968" r="8.192"/>
	<circle style="fill:#999999;" cx="89.648" cy="71.968" r="8.192"/>
</g>
<polygon style="fill:#FFFFFF;" points="471.488,67.168 468.64,69.984 475.76,77.088 458.224,77.088 458.224,81.088 475.76,81.088 
	468.64,88.192 471.488,91.024 483.408,79.088 "/>
<rect x="155.472" y="88.944" style="fill:#E21B1B;" width="281.984" height="3.184"/>
<polygon style="fill:#999999;" points="426.72,67.952 419.056,77.856 411.408,67.952 "/>
<path d="M498,453.12H14V113.088h484V453.12z M18,449.12h476V117.088H18V449.12z"/>
<path style="fill:#666666;" d="M497.584,452.72H14.4V113.504h483.184L497.584,452.72z M17.584,449.536H494.4V116.688H17.584V449.536
	z"/>
<g>
	<path style="fill:#FFFFFF;" d="M179.36,80.496l-4.608-15.04h2.64l2.4,8.688l0.896,3.232c0.032-0.16,0.304-1.2,0.784-3.104
		l2.384-8.816h2.624l2.256,8.72l0.752,2.88l0.864-2.912l2.576-8.688h2.48l-4.704,15.04h-2.656l-2.384-9.008l-0.592-2.56
		l-3.04,11.584h-2.672V80.496z"/>
	<path style="fill:#FFFFFF;" d="M200.336,80.496l-4.608-15.04h2.64l2.4,8.688l0.896,3.232c0.032-0.16,0.304-1.2,0.784-3.104
		l2.384-8.816h2.624l2.256,8.72l0.752,2.88l0.864-2.912l2.576-8.688h2.48l-4.704,15.04h-2.656l-2.384-9.008l-0.592-2.56
		l-3.04,11.584h-2.672V80.496z"/>
	<path style="fill:#FFFFFF;" d="M221.28,80.496l-4.608-15.04h2.64l2.4,8.688l0.896,3.232c0.032-0.16,0.304-1.2,0.784-3.104
		l2.384-8.816h2.624l2.256,8.72l0.752,2.88l0.864-2.912l2.576-8.688h2.48l-4.704,15.04h-2.656l-2.384-9.008l-0.592-2.56
		l-3.04,11.584h-2.672V80.496z"/>
	<path style="fill:#FFFFFF;" d="M238.592,80.496v-2.912h2.912v2.912H238.592z"/>
</g>
<g>
	
		<rect x="376.69" y="326.884" transform="matrix(-0.7071 0.7071 -0.7071 -0.7071 915.0037 331.5598)" style="fill:#999999;" width="24.288" height="56.799"/>
	<polygon style="fill:#999999;" points="342.128,361.824 331.104,298.4 394.528,309.424 	"/>
</g>
<path style="fill:#E21B1B;" d="M371.568,186.896c6.496,0,11.776,5.28,11.776,11.776v73.52c0,6.496-5.28,11.776-11.776,11.776
	H114.272c-6.496,0-11.776-5.28-11.776-11.776v-73.52c0-6.496,5.28-11.776,11.776-11.776H371.568 M371.568,178.896H114.272
	c-10.912,0-19.776,8.88-19.776,19.776v73.52c0,10.912,8.88,19.776,19.776,19.776h257.296c10.912,0,19.776-8.88,19.776-19.776v-73.52
	C391.344,187.776,382.464,178.896,371.568,178.896L371.568,178.896z"/>
<g>
	<path style="fill:#FFFFFF;" d="M138.272,210.736l6.528,25.104c1.44,5.504,2.768,10.608,3.68,15.696h0.32
		c1.12-4.992,2.752-10.304,4.384-15.616l8.064-25.2h7.552l7.664,24.688c1.84,5.92,3.264,11.12,4.384,16.128h0.32
		c0.816-4.992,2.144-10.208,3.76-16.016l7.04-24.8h8.88l-15.92,49.392h-8.16l-7.568-23.584c-1.728-5.504-3.152-10.4-4.384-16.224
		h-0.208c-1.216,5.92-2.752,11.008-4.48,16.336l-7.952,23.472H144l-14.896-49.392h9.168V210.736z"/>
	<path style="fill:#FFFFFF;" d="M214.688,210.736l6.528,25.104c1.44,5.504,2.768,10.608,3.68,15.696h0.304
		c1.12-4.992,2.752-10.304,4.384-15.616l8.064-25.2h7.552l7.664,24.688c1.84,5.92,3.264,11.12,4.384,16.128h0.32
		c0.816-4.992,2.144-10.208,3.76-16.016l7.04-24.8h8.88l-15.92,49.392h-8.16l-7.568-23.584c-1.728-5.504-3.152-10.4-4.384-16.224
		h-0.208c-1.216,5.92-2.752,11.008-4.48,16.336l-7.952,23.472H220.4l-14.896-49.392h9.184V210.736z"/>
	<path style="fill:#FFFFFF;" d="M291.072,210.736l6.528,25.104c1.44,5.504,2.768,10.608,3.664,15.696h0.32
		c1.12-4.992,2.752-10.304,4.384-15.616l8.064-25.2h7.568l7.664,24.688c1.84,5.92,3.264,11.12,4.384,16.128h0.304
		c0.832-4.992,2.16-10.208,3.776-16.016l7.04-24.8h8.88l-15.92,49.392h-8.16L322,236.528c-1.728-5.504-3.152-10.4-4.368-16.224
		h-0.224c-1.216,5.92-2.752,11.008-4.48,16.336l-7.952,23.472H296.8l-14.896-49.392h9.168V210.736z"/>
</g>
<g>
</g>
<g>
</g>
<g>
</g>
<g>
</g>
<g>
</g>
<g>
</g>
<g>
</g>
<g>
</g>
<g>
</g>
<g>
</g>
<g>
</g>
<g>
</g>
<g>
</g>
<g>
</g>
<g>
</g>
</svg>
