<?xml version="1.0" encoding="iso-8859-1"?>
<!-- Generator: Adobe Illustrator 19.0.0, SVG Export Plug-In . SVG Version: 6.00 Build 0)  -->
<svg version="1.1" id="Layer_1" xmlns="http://www.w3.org/2000/svg" xmlns:xlink="http://www.w3.org/1999/xlink" x="0px" y="0px"
	 viewBox="0 0 512 512" style="enable-background:new 0 0 512 512;" xml:space="preserve">
<path d="M483.248,44.88C499.056,44.88,512,57.824,512,73.632V467.12H0V73.632C0,57.824,12.944,44.88,28.752,44.88
	C28.752,44.88,483.248,44.88,483.248,44.88z"/>
<g style="opacity:0.2;">
	<path style="fill:#FFFFFF;" d="M28.752,44.88C12.944,44.88,0,57.824,0,73.632v25.44h115.888L147.04,44.88H28.752z"/>
</g>
<g>
	<circle style="fill:#999999;" cx="40.528" cy="71.968" r="8.192"/>
	<circle style="fill:#999999;" cx="65.088" cy="71.968" r="8.192"/>
	<circle style="fill:#999999;" cx="89.648" cy="71.968" r="8.192"/>
</g>
<polygon style="fill:#FFFFFF;" points="471.488,67.168 468.64,69.984 475.76,77.088 458.224,77.088 458.224,81.088 475.76,81.088 
	468.64,88.192 471.488,91.024 483.408,79.088 "/>
<rect x="155.472" y="88.944" style="fill:#E21B1B;" width="281.984" height="3.184"/>
<polygon style="fill:#999999;" points="426.72,67.952 419.056,77.856 411.408,67.952 "/>
<path d="M498,453.12H14V113.088h484V453.12z M18,449.12h476V117.088H18V449.12z"/>
<path style="fill:#666666;" d="M497.584,452.72H14.4V113.504h483.184L497.584,452.72z M17.584,449.536H494.4V116.688H17.584V449.536
	z"/>
<g>
	<path style="fill:#FFFFFF;" d="M179.36,80.496l-4.608-15.04h2.64l2.4,8.688l0.896,3.232c0.032-0.16,0.304-1.2,0.784-3.104
		l2.384-8.816h2.624l2.256,8.72l0.752,2.88l0.864-2.912l2.576-8.688h2.48l-4.704,15.04h-2.656l-2.384-9.008l-0.592-2.56
		l-3.04,11.584h-2.672V80.496z"/>
	<path style="fill:#FFFFFF;" d="M200.336,80.496l-4.608-15.04h2.64l2.4,8.688l0.896,3.232c0.032-0.16,0.304-1.2,0.784-3.104
		l2.384-8.816h2.624l2.256,8.72l0.752,2.88l0.864-2.912l2.576-8.688h2.48l-4.704,15.04h-2.656l-2.384-9.008l-0.592-2.56
		l-3.04,11.584h-2.672V80.496z"/>
	<path style="fill:#FFFFFF;" d="M221.28,80.496l-4.608-15.04h2.64l2.4,8.688l0.896,3.232c0.032-0.16,0.304-1.2,0.784-3.104
		l2.384-8.816h2.624l2.256,8.72l0.752,2.88l0.864-2.912l2.576-8.688h2.48l-4.704,15.04h-2.656l-2.384-9.008l-0.592-2.56
		l-3.04,11.584h-2.672V80.496z"/>
	<path style="fill:#FFFFFF;" d="M238.592,80.496v-2.912h2.912v2.912H238.592z"/>
</g>
<g>
	<path style="fill:#E21B1B;" d="M98.096,220.24h7.504v38.864c0,15.424-7.568,20.176-17.584,20.176c-2.752,0-6.112-0.608-8.016-1.376
		l1.12-6.112c1.552,0.592,3.792,1.12,6.304,1.12c6.72,0,10.672-3.024,10.672-14.4V220.24z"/>
	<path style="fill:#E21B1B;" d="M140.96,278.336l-0.592-5.248h-0.272c-2.336,3.28-6.8,6.208-12.752,6.208
		c-8.448,0-12.768-5.952-12.768-11.984c0-10.08,8.976-15.6,25.088-15.52v-0.864c0-3.44-0.96-9.648-9.472-9.648
		c-3.888,0-7.92,1.216-10.864,3.104l-1.728-4.992c3.44-2.24,8.432-3.712,13.712-3.712c12.752,0,15.856,8.704,15.856,17.072v15.6
		c0,3.632,0.176,7.152,0.688,10h-6.896V278.336z M139.84,257.04c-8.288-0.176-17.664,1.312-17.664,9.408
		c0,4.912,3.28,7.232,7.152,7.232c5.424,0,8.864-3.44,10.08-6.976c0.272-0.784,0.432-1.648,0.432-2.416V257.04z"/>
	<path style="fill:#E21B1B;" d="M161.664,236.608l8.192,23.44c1.376,3.792,2.512,7.232,3.36,10.672h0.256
		c0.944-3.44,2.144-6.88,3.536-10.672l8.096-23.44h7.92L176.64,278.32h-7.232l-15.856-41.712H161.664z"/>
	<path style="fill:#E21B1B;" d="M222.976,278.336l-0.592-5.248h-0.256c-2.336,3.28-6.8,6.208-12.752,6.208
		c-8.448,0-12.768-5.952-12.768-11.984c0-10.08,8.976-15.6,25.088-15.52v-0.864c0-3.44-0.96-9.648-9.472-9.648
		c-3.888,0-7.92,1.216-10.864,3.104l-1.728-4.992c3.44-2.24,8.432-3.712,13.712-3.712c12.752,0,15.856,8.704,15.856,17.072v15.6
		c0,3.632,0.176,7.152,0.688,10h-6.912V278.336z M221.856,257.04c-8.288-0.176-17.664,1.312-17.664,9.408
		c0,4.912,3.28,7.232,7.152,7.232c5.424,0,8.864-3.44,10.08-6.976c0.256-0.784,0.432-1.648,0.432-2.416V257.04z"/>
	<path style="fill:#E21B1B;" d="M240.4,270.576c2.24,1.472,6.208,3.008,10,3.008c5.52,0,8.096-2.752,8.096-6.192
		c0-3.632-2.144-5.6-7.76-7.68c-7.504-2.672-11.024-6.8-11.024-11.792c0-6.736,5.44-12.24,14.4-12.24
		c4.224,0,7.92,1.216,10.256,2.592l-1.904,5.52c-1.632-1.04-4.656-2.416-8.528-2.416c-4.48,0-6.992,2.576-6.992,5.68
		c0,3.44,2.512,4.992,7.936,7.072c7.232,2.752,10.944,6.368,10.944,12.576c0,7.328-5.68,12.496-15.6,12.496
		c-4.576,0-8.8-1.12-11.728-2.848L240.4,270.576z"/>
	<path style="fill:#E21B1B;" d="M305.328,276.784c-1.984,1.024-6.368,2.416-11.984,2.416c-12.576,0-20.768-8.528-20.768-21.28
		c0-12.848,8.784-22.16,22.416-22.16c4.464,0,8.432,1.12,10.512,2.144l-1.728,5.872c-1.808-1.04-4.656-1.984-8.784-1.984
		c-9.568,0-14.752,7.072-14.752,15.76c0,9.648,6.208,15.6,14.496,15.6c4.304,0,7.152-1.104,9.312-2.064L305.328,276.784z"/>
	<path style="fill:#E21B1B;" d="M314.208,249.632c0-4.912-0.08-9.136-0.336-13.008h6.64l0.256,8.192h0.336
		c1.904-5.6,6.464-9.136,11.552-9.136c0.864,0,1.456,0.096,2.144,0.256v7.152c-0.768-0.176-1.552-0.256-2.576-0.256
		c-5.344,0-9.136,4.064-10.176,9.744c-0.176,1.024-0.336,2.24-0.336,3.536v22.224h-7.52v-28.704H314.208z"/>
	<path style="fill:#E21B1B;" d="M351.2,224.896c0.096,2.576-1.808,4.656-4.832,4.656c-2.672,0-4.56-2.08-4.56-4.656
		c0-2.672,1.984-4.736,4.736-4.736C349.392,220.16,351.2,222.224,351.2,224.896z M342.752,278.336v-41.712h7.584v41.712H342.752z"/>
	<path style="fill:#E21B1B;" d="M362.944,250.224c0-5.328-0.176-9.648-0.336-13.616h6.8l0.352,7.152h0.176
		c3.104-5.088,8.016-8.112,14.832-8.112c10.08,0,17.664,8.544,17.664,21.2c0,14.992-9.136,22.416-18.96,22.416
		c-5.52,0-10.352-2.416-12.848-6.56h-0.176v22.672h-7.52v-45.152H362.944z M370.448,261.344c0,1.12,0.176,2.144,0.336,3.104
		c1.376,5.248,5.952,8.88,11.376,8.88c8.016,0,12.672-6.56,12.672-16.112c0-8.352-4.4-15.52-12.416-15.52
		c-5.168,0-9.984,3.696-11.456,9.392c-0.256,0.96-0.512,2.08-0.512,3.104L370.448,261.344L370.448,261.344z"/>
	<path style="fill:#E21B1B;" d="M421.136,224.624v11.984H432v5.776h-10.864v22.496c0,5.168,1.456,8.096,5.68,8.096
		c1.984,0,3.456-0.256,4.4-0.512l0.352,5.68c-1.472,0.592-3.792,1.024-6.736,1.024c-3.536,0-6.368-1.12-8.192-3.184
		c-2.144-2.24-2.912-5.968-2.912-10.864V242.4h-6.464v-5.776h6.464v-10L421.136,224.624z"/>
</g>
<rect x="80" y="316.816" style="fill:#FFFFFF;" width="352" height="11.2"/>
<g>
</g>
<g>
</g>
<g>
</g>
<g>
</g>
<g>
</g>
<g>
</g>
<g>
</g>
<g>
</g>
<g>
</g>
<g>
</g>
<g>
</g>
<g>
</g>
<g>
</g>
<g>
</g>
<g>
</g>
</svg>
