<svg width="244" height="41" viewBox="0 0 244 41" fill="none" xmlns="http://www.w3.org/2000/svg">
<g filter="url(#filter0_d)">
<path d="M1.62 14.896C1.62 12.592 1.98 10.588 2.7 8.884C3.444 7.18 4.404 5.764 5.58 4.636C6.756 3.508 8.052 2.668 9.468 2.116C10.908 1.564 12.336 1.288 13.752 1.288C15.696 1.288 17.424 1.648 18.936 2.368C20.448 3.088 21.72 4.072 22.752 5.32C23.784 6.544 24.564 7.984 25.092 9.64C25.62 11.296 25.884 13.048 25.884 14.896C25.884 16.984 25.56 18.868 24.912 20.548C24.264 22.204 23.376 23.632 22.248 24.832C21.144 26.008 19.86 26.92 18.396 27.568C16.932 28.192 15.384 28.504 13.752 28.504C12.072 28.504 10.488 28.192 9 27.568C7.536 26.944 6.252 26.056 5.148 24.904C4.068 23.728 3.204 22.3 2.556 20.62C1.932 18.94 1.62 17.032 1.62 14.896ZM5.292 14.896C5.292 16.528 5.496 18.016 5.904 19.36C6.336 20.704 6.924 21.868 7.668 22.852C8.436 23.812 9.336 24.568 10.368 25.12C11.4 25.648 12.528 25.912 13.752 25.912C15.024 25.912 16.176 25.624 17.208 25.048C18.264 24.472 19.152 23.692 19.872 22.708C20.616 21.724 21.192 20.56 21.6 19.216C22.008 17.872 22.212 16.432 22.212 14.896C22.212 13.216 21.984 11.704 21.528 10.36C21.096 8.992 20.496 7.828 19.728 6.868C18.96 5.908 18.06 5.176 17.028 4.672C15.996 4.168 14.904 3.916 13.752 3.916C12.6 3.916 11.508 4.168 10.476 4.672C9.444 5.176 8.544 5.908 7.776 6.868C7.008 7.828 6.396 8.992 5.94 10.36C5.508 11.704 5.292 13.216 5.292 14.896ZM111.816 1.828H126.72V4.42H115.236V25.408H127.26V28H111.816V1.828ZM125.496 13.024V15.544H116.604C116.868 14.848 117.228 14.26 117.684 13.78C118.164 13.276 118.836 13.024 119.7 13.024H125.496Z" fill="#C00000"/>
<path d="M39.1326 28H35.8566V0.711999H39.1326V28ZM60.5492 16.588C60.6212 15.892 60.5732 15.244 60.4052 14.644C60.2372 14.044 59.9732 13.516 59.6132 13.06C59.2772 12.604 58.8572 12.256 58.3532 12.016C57.8492 11.752 57.3092 11.62 56.7332 11.62C55.2212 11.62 53.9852 12.22 53.0252 13.42C52.0892 14.62 51.6212 16.336 51.6212 18.568C51.6212 19.648 51.7652 20.632 52.0532 21.52C52.3412 22.384 52.7372 23.14 53.2412 23.788C53.7692 24.412 54.3812 24.904 55.0772 25.264C55.7732 25.6 56.5292 25.768 57.3452 25.768C58.1852 25.768 58.9652 25.684 59.6852 25.516C60.4292 25.348 61.3172 25 62.3492 24.472L63.2492 26.848C62.0972 27.448 60.9812 27.844 59.9012 28.036C58.8212 28.252 57.8492 28.36 56.9852 28.36C55.6652 28.36 54.4652 28.12 53.3852 27.64C52.3052 27.136 51.3812 26.452 50.6132 25.588C49.8692 24.7 49.2932 23.656 48.8852 22.456C48.4772 21.256 48.2732 19.948 48.2732 18.532C48.2732 17.068 48.4772 15.76 48.8852 14.608C49.2932 13.432 49.8812 12.436 50.6492 11.62C51.4172 10.78 52.3412 10.144 53.4212 9.712C54.5012 9.256 55.7252 9.028 57.0932 9.028C58.3172 9.028 59.4092 9.304 60.3692 9.856C61.3292 10.408 62.0972 11.152 62.6732 12.088C63.2492 13 63.5972 14.056 63.7172 15.256C63.8612 16.456 63.7412 17.704 63.3572 19H52.9172C53.1812 18.304 53.5412 17.728 53.9972 17.272C54.4532 16.816 55.1132 16.588 55.9772 16.588H60.5492ZM72.1032 18.784C72.1032 17.32 72.3312 15.988 72.7872 14.788C73.2672 13.588 73.9272 12.568 74.7672 11.728C75.6312 10.864 76.6392 10.204 77.7912 9.748C78.9672 9.268 80.2512 9.028 81.6432 9.028C82.6512 9.028 83.6472 9.124 84.6312 9.316C85.6392 9.484 86.7672 9.772 88.0152 10.18V28C88.0152 29.344 87.8112 30.568 87.4032 31.672C87.0192 32.776 86.4552 33.724 85.7112 34.516C84.9672 35.308 84.0672 35.92 83.0112 36.352C81.9792 36.784 80.8032 37 79.4832 37C78.5472 37 77.5272 36.904 76.4232 36.712C75.3192 36.52 74.1672 36.112 72.9672 35.488L73.9032 33.04C74.9352 33.544 75.8832 33.892 76.7472 34.084C77.6112 34.3 78.4272 34.408 79.1952 34.408C79.9392 34.408 80.6472 34.288 81.3192 34.048C81.9912 33.808 82.5792 33.436 83.0832 32.932C83.5872 32.452 83.9832 31.828 84.2712 31.06C84.5832 30.316 84.7392 29.428 84.7392 28.396V12.016C84.1872 11.872 83.6712 11.776 83.1912 11.728C82.7112 11.656 82.1952 11.62 81.6432 11.62C79.8432 11.62 78.3912 12.232 77.2872 13.456C76.1832 14.68 75.6312 16.456 75.6312 18.784C75.6312 19.792 75.7272 20.74 75.9192 21.628C76.1352 22.492 76.4472 23.236 76.8552 23.86C77.2872 24.46 77.8032 24.916 78.4032 25.228C79.0272 25.54 79.7592 25.648 80.5992 25.552C81.1272 25.504 81.6312 25.576 82.1112 25.768C82.6152 25.96 83.0832 26.332 83.5152 26.884C82.9152 27.292 82.3032 27.604 81.6792 27.82C81.0552 28.036 80.4672 28.168 79.9152 28.216C78.8352 28.312 77.8152 28.156 76.8552 27.748C75.9192 27.316 75.0912 26.68 74.3712 25.84C73.6752 25 73.1232 23.98 72.7152 22.78C72.3072 21.58 72.1032 20.248 72.1032 18.784Z" fill="#D7D7D7"/>
<path d="M138.749 9.388C139.133 9.796 139.397 10.24 139.541 10.72C139.709 11.176 139.853 11.692 139.973 12.268V12.916L140.261 12.268C140.741 11.356 141.413 10.612 142.277 10.036C143.141 9.436 144.065 9.136 145.049 9.136C145.529 9.136 146.117 9.232 146.813 9.424L146.381 12.232C145.997 12.136 145.661 12.076 145.373 12.052C145.109 12.028 144.869 12.016 144.653 12.016C144.101 12.016 143.549 12.136 142.997 12.376C142.445 12.592 141.953 12.94 141.521 13.42C141.089 13.9 140.729 14.524 140.441 15.292C140.177 16.06 140.045 16.984 140.045 18.064V28H136.841V15.688C136.841 14.584 136.793 13.468 136.697 12.34C136.601 11.212 136.457 10.228 136.265 9.388H138.749ZM154.252 24.472C155.164 24.928 156.076 25.264 156.988 25.48C157.924 25.672 158.776 25.768 159.544 25.768C160.624 25.768 161.428 25.516 161.956 25.012C162.484 24.508 162.748 23.86 162.748 23.068C162.748 22.42 162.532 21.88 162.1 21.448C161.668 21.016 161.128 20.632 160.48 20.296C159.832 19.936 159.136 19.588 158.392 19.252C157.648 18.916 156.952 18.52 156.304 18.064C155.656 17.608 155.116 17.056 154.684 16.408C154.252 15.736 154.036 14.896 154.036 13.888C154.036 13.312 154.156 12.736 154.396 12.16C154.66 11.584 155.032 11.068 155.512 10.612C155.992 10.156 156.592 9.784 157.312 9.496C158.032 9.208 158.86 9.064 159.796 9.064C160.492 9.064 161.248 9.136 162.064 9.28C162.88 9.4 163.792 9.64 164.8 10L163.972 12.34C163.204 12.076 162.496 11.896 161.848 11.8C161.224 11.68 160.66 11.62 160.156 11.62C159.316 11.62 158.62 11.812 158.068 12.196C157.54 12.58 157.276 13.144 157.276 13.888C157.276 14.536 157.492 15.076 157.924 15.508C158.356 15.916 158.896 16.3 159.544 16.66C160.192 16.996 160.888 17.344 161.632 17.704C162.376 18.04 163.072 18.448 163.72 18.928C164.368 19.384 164.908 19.96 165.34 20.656C165.772 21.352 165.988 22.216 165.988 23.248C165.988 23.944 165.82 24.604 165.484 25.228C165.172 25.828 164.728 26.368 164.152 26.848C163.6 27.304 162.964 27.676 162.244 27.964C161.524 28.228 160.768 28.36 159.976 28.36C159.064 28.36 158.08 28.276 157.024 28.108C155.992 27.964 154.78 27.544 153.388 26.848L154.252 24.472ZM174.376 28V0.711999H177.724V28H174.376ZM186.004 14.464C186.004 13.624 185.836 12.94 185.5 12.412C185.188 11.884 184.684 11.62 183.988 11.62C183.7 11.62 183.46 11.656 183.268 11.728C183.1 11.776 182.848 11.836 182.512 11.908C181.816 12.076 181.18 12.088 180.604 11.944C180.028 11.8 179.488 11.464 178.984 10.936C180.256 10.192 181.312 9.688 182.152 9.424C182.992 9.16 183.748 9.028 184.42 9.028C185.116 9.028 185.764 9.124 186.364 9.316C186.988 9.484 187.528 9.796 187.984 10.252C188.44 10.708 188.8 11.308 189.064 12.052C189.328 12.796 189.46 13.72 189.46 14.824V28H186.004V14.464ZM198.101 18.676C198.101 17.02 198.353 15.592 198.857 14.392C199.361 13.168 200.021 12.16 200.837 11.368C201.653 10.576 202.577 9.988 203.609 9.604C204.665 9.22 205.721 9.028 206.777 9.028C208.145 9.028 209.369 9.28 210.449 9.784C211.529 10.288 212.441 10.972 213.185 11.836C213.929 12.7 214.493 13.72 214.877 14.896C215.261 16.072 215.453 17.332 215.453 18.676C215.453 20.236 215.213 21.628 214.733 22.852C214.277 24.052 213.653 25.06 212.861 25.876C212.069 26.692 211.145 27.316 210.089 27.748C209.033 28.156 207.929 28.36 206.777 28.36C205.577 28.36 204.449 28.156 203.393 27.748C202.337 27.316 201.413 26.692 200.621 25.876C199.853 25.06 199.241 24.052 198.785 22.852C198.329 21.628 198.101 20.236 198.101 18.676ZM201.665 18.676C201.665 19.732 201.773 20.692 201.989 21.556C202.229 22.42 202.565 23.164 202.997 23.788C203.429 24.412 203.957 24.904 204.581 25.264C205.229 25.6 205.961 25.768 206.777 25.768C207.641 25.768 208.397 25.588 209.045 25.228C209.693 24.844 210.221 24.328 210.629 23.68C211.061 23.032 211.373 22.276 211.565 21.412C211.781 20.548 211.889 19.636 211.889 18.676C211.889 17.476 211.745 16.432 211.457 15.544C211.193 14.656 210.821 13.924 210.341 13.348C209.885 12.772 209.345 12.34 208.721 12.052C208.097 11.764 207.449 11.62 206.777 11.62C206.081 11.62 205.421 11.764 204.797 12.052C204.197 12.34 203.657 12.772 203.177 13.348C202.721 13.924 202.349 14.656 202.061 15.544C201.797 16.432 201.665 17.476 201.665 18.676ZM228.932 28L221.948 9.388H225.548L230.516 23.896L230.804 24.796L231.056 23.896L235.988 9.388H239.444L232.46 28H228.932Z" fill="#D8D8D8"/>
</g>
<defs>
<filter id="filter0_d" x="-2.38" y="0.712006" width="245.824" height="44.288" filterUnits="userSpaceOnUse" color-interpolation-filters="sRGB">
<feFlood flood-opacity="0" result="BackgroundImageFix"/>
<feColorMatrix in="SourceAlpha" type="matrix" values="0 0 0 0 0 0 0 0 0 0 0 0 0 0 0 0 0 0 127 0"/>
<feOffset dy="4"/>
<feGaussianBlur stdDeviation="2"/>
<feColorMatrix type="matrix" values="0 0 0 0 0 0 0 0 0 0 0 0 0 0 0 0 0 0 0.25 0"/>
<feBlend mode="normal" in2="BackgroundImageFix" result="effect1_dropShadow"/>
<feBlend mode="normal" in="SourceGraphic" in2="effect1_dropShadow" result="shape"/>
</filter>
</defs>
</svg>
