<svg width="245" height="40" viewBox="0 0 245 40" fill="none" xmlns="http://www.w3.org/2000/svg">
<g filter="url(#filter0_d)">
<path d="M14.0098 1.37109C15.9668 1.37109 17.7715 1.69336 19.4238 2.33789C21.0879 2.9707 22.5234 3.86719 23.7305 5.02734C24.9375 6.17578 25.8809 7.55859 26.5605 9.17578C27.2402 10.793 27.5801 12.5801 27.5801 14.5371C27.5801 15.6504 27.4512 16.7461 27.1934 17.8242C26.9355 18.9023 26.5547 19.9219 26.0508 20.8828C25.5586 21.8438 24.9492 22.7344 24.2227 23.5547C23.4961 24.3633 22.6641 25.0664 21.7266 25.6641C20.8008 26.25 19.7754 26.707 18.6504 27.0352C17.5254 27.375 16.3125 27.5449 15.0117 27.5449C13.0547 27.5449 11.2441 27.2344 9.58008 26.6133C7.92773 25.9805 6.49805 25.0898 5.29102 23.9414C4.08398 22.793 3.14062 21.416 2.46094 19.8105C1.78125 18.1934 1.44141 16.4004 1.44141 14.4316C1.44141 13.3184 1.57031 12.2227 1.82812 11.1445C2.08594 10.0664 2.46094 9.04102 2.95312 8.06836C3.45703 7.0957 4.06641 6.20508 4.78125 5.39648C5.50781 4.57617 6.33398 3.86719 7.25977 3.26953C8.19727 2.67188 9.22852 2.20898 10.3535 1.88086C11.4902 1.54102 12.709 1.37109 14.0098 1.37109ZM15.0117 25.9629C16.3125 25.9629 17.502 25.7285 18.5801 25.2598C19.6582 24.791 20.584 24.1113 21.3574 23.2207C22.1426 22.3301 22.752 21.2461 23.1855 19.9688C23.6191 18.6797 23.8359 17.2207 23.8359 15.5918C23.8359 13.7871 23.625 12.1172 23.2031 10.582C22.793 9.03516 22.1777 7.69922 21.3574 6.57422C20.5371 5.4375 19.5117 4.55273 18.2812 3.91992C17.0625 3.27539 15.6387 2.95312 14.0098 2.95312C12.709 2.95312 11.5195 3.1875 10.4414 3.65625C9.36328 4.11328 8.43164 4.78125 7.64648 5.66016C6.87305 6.53906 6.26953 7.61719 5.83594 8.89453C5.40234 10.1719 5.18555 11.625 5.18555 13.2539C5.18555 15.0469 5.39062 16.7227 5.80078 18.2812C6.21094 19.8281 6.82617 21.1699 7.64648 22.3066C8.4668 23.4434 9.49219 24.3398 10.7227 24.9961C11.9531 25.6406 13.3828 25.9629 15.0117 25.9629ZM116.764 1.79297C118.229 1.79297 119.682 1.78711 121.124 1.77539C122.577 1.76367 123.907 1.75195 125.114 1.74023C126.321 1.7168 127.352 1.6875 128.208 1.65234C129.063 1.61719 129.643 1.57031 129.948 1.51172L129.087 3.84961C128.7 3.74414 128.249 3.65039 127.733 3.56836C127.288 3.49805 126.743 3.43359 126.098 3.375C125.466 3.30469 124.733 3.26953 123.901 3.26953C123.62 3.26953 123.28 3.28125 122.882 3.30469C122.495 3.31641 122.12 3.33398 121.757 3.35742C121.335 3.38086 120.907 3.4043 120.473 3.42773V13.0254C121.68 13.0137 122.77 12.9785 123.743 12.9199C124.716 12.8613 125.542 12.8027 126.221 12.7441C127.018 12.6738 127.721 12.5918 128.331 12.498L127.786 15.0469C126.977 14.9414 126.151 14.8418 125.307 14.748C124.581 14.666 123.79 14.5957 122.934 14.5371C122.079 14.4668 121.259 14.4316 120.473 14.4316V25.4531C121.856 25.4531 123.128 25.3945 124.288 25.2773C125.448 25.1602 126.462 25.0254 127.329 24.873C128.337 24.709 129.257 24.5156 130.089 24.293L129.579 27.1406C129.438 27.1289 129.227 27.1172 128.946 27.1055C128.665 27.0938 128.348 27.082 127.997 27.0703C127.657 27.0586 127.294 27.0469 126.907 27.0352C126.532 27.0352 126.175 27.0293 125.835 27.0176C125.495 27.0176 125.19 27.0117 124.921 27C124.663 27 124.475 27 124.358 27H116.764V26.9297C116.835 26.6836 116.899 26.3789 116.958 26.0156C117.028 25.6523 117.087 25.2012 117.134 24.6621C117.18 24.123 117.216 23.4844 117.239 22.7461C117.262 21.9961 117.274 21.123 117.274 20.127V8.68359C117.274 7.6875 117.262 6.82031 117.239 6.08203C117.216 5.33203 117.18 4.6875 117.134 4.14844C117.087 3.59766 117.028 3.14063 116.958 2.77734C116.899 2.41406 116.835 2.10938 116.764 1.86328V1.79297Z" fill="#C00000"/>
<path d="M36.8916 7.59375C36.8916 6.59766 36.874 5.73047 36.8388 4.99219C36.8154 4.24219 36.7802 3.59766 36.7334 3.05859C36.6982 2.51953 36.6455 2.06836 36.5752 1.70508C36.5166 1.3418 36.4521 1.03711 36.3818 0.791016V0.720703H40.4423V0.791016C40.372 1.03711 40.3076 1.3418 40.249 1.70508C40.1904 2.06836 40.1377 2.51953 40.0908 3.05859C40.0439 3.59766 40.0088 4.24219 39.9853 4.99219C39.9619 5.73047 39.9502 6.59766 39.9502 7.59375V20.127C39.9502 21.123 39.9619 21.9961 39.9853 22.7461C40.0088 23.4844 40.0439 24.123 40.0908 24.6621C40.1377 25.2012 40.1904 25.6523 40.249 26.0156C40.3076 26.3789 40.372 26.6836 40.4423 26.9297V27H36.3818V26.9297C36.4521 26.6836 36.5166 26.3789 36.5752 26.0156C36.6455 25.6523 36.6982 25.2012 36.7334 24.6621C36.7802 24.123 36.8154 23.4844 36.8388 22.7461C36.874 21.9961 36.8916 21.123 36.8916 20.127V7.59375ZM58.3847 27.3164C57.0839 27.3164 55.8652 27.1113 54.7284 26.7012C53.5917 26.291 52.6015 25.6934 51.7577 24.9082C50.914 24.1113 50.246 23.1328 49.7538 21.9727C49.2734 20.8008 49.0331 19.4648 49.0331 17.9648C49.0331 16.6406 49.2558 15.416 49.7011 14.291C50.1464 13.1543 50.7616 12.1699 51.5468 11.3379C52.332 10.5059 53.246 9.85547 54.289 9.38672C55.3437 8.91797 56.4804 8.68359 57.6991 8.68359C58.9062 8.68359 60.0253 8.89453 61.0566 9.31641C62.0878 9.72656 62.9784 10.3301 63.7284 11.127C64.4902 11.9121 65.0878 12.8906 65.5214 14.0625C65.9667 15.2227 66.207 16.5469 66.2421 18.0352C64.9179 18.0117 63.5937 17.9941 62.2695 17.9824C60.9452 17.9707 59.5683 17.9648 58.1386 17.9648C57.1191 17.9648 56.123 17.9707 55.1503 17.9824C54.1894 17.9941 53.3222 18.0117 52.5488 18.0352C52.6191 19.2539 52.8066 20.3555 53.1113 21.3398C53.4277 22.3242 53.8554 23.168 54.3945 23.8711C54.9452 24.5625 55.6073 25.0957 56.3808 25.4707C57.1659 25.8457 58.0507 26.0332 59.0351 26.0332C59.7148 26.0332 60.3534 25.957 60.9511 25.8047C61.5605 25.6406 62.1113 25.418 62.6034 25.1367C63.0956 24.8555 63.5351 24.5273 63.9218 24.1523C64.3085 23.7656 64.6366 23.3496 64.9062 22.9043L65.1171 23.0098L63.8163 26.1387C63.1835 26.4668 62.4277 26.748 61.5488 26.9824C60.6698 27.2051 59.6152 27.3164 58.3847 27.3164ZM56.0468 16.5938C57.2187 16.5938 58.3905 16.5938 59.5624 16.5938C60.746 16.582 61.8183 16.5586 62.7792 16.5234C62.6738 15.5039 62.4745 14.5898 62.1816 13.7812C61.8886 12.9727 61.5136 12.2871 61.0566 11.7246C60.5995 11.1621 60.0605 10.7285 59.4394 10.4238C58.8183 10.1191 58.1327 9.9668 57.3827 9.9668C56.703 9.9668 56.0761 10.1191 55.5019 10.4238C54.9394 10.7168 54.4472 11.1445 54.0253 11.707C53.6034 12.2695 53.2636 12.9609 53.0058 13.7812C52.748 14.5898 52.5956 15.5156 52.5488 16.5586C53.0761 16.582 53.6327 16.5938 54.2187 16.5938C54.8046 16.5938 55.414 16.5938 56.0468 16.5938ZM81.8641 35.0332C82.8134 35.0332 83.6161 34.9277 84.2723 34.7168C84.9286 34.5176 85.4677 34.2363 85.8895 33.873C86.3231 33.5098 86.6513 33.0703 86.8739 32.5547C87.1083 32.0508 87.2782 31.4941 87.3837 30.8848C87.5009 30.2754 87.5653 29.625 87.577 28.9336C87.6005 28.2422 87.6122 27.5273 87.6122 26.7891V26.209C87.038 26.5137 86.3466 26.7773 85.538 27C84.7294 27.2109 83.8153 27.3164 82.7958 27.3164C81.4013 27.3164 80.1356 27.0996 78.9989 26.666C77.8622 26.2324 76.8895 25.6113 76.0809 24.8027C75.2841 23.9941 74.6688 23.0156 74.2352 21.8672C73.8016 20.707 73.5848 19.4062 73.5848 17.9648C73.5848 16.6406 73.7958 15.4102 74.2177 14.2734C74.6513 13.1367 75.2548 12.1523 76.0282 11.3203C76.8134 10.4883 77.745 9.83789 78.8231 9.36914C79.913 8.88867 81.1141 8.64844 82.4266 8.64844C82.9891 8.64844 83.5048 8.69531 83.9735 8.78906C84.4423 8.88281 84.8759 9.01172 85.2743 9.17578C85.6845 9.32812 86.0653 9.50977 86.4169 9.7207C86.7802 9.91992 87.1317 10.1367 87.4716 10.3711L87.2958 9.07031V9H91.1805V9.07031C91.1102 9.31641 91.0399 9.62109 90.9696 9.98438C90.911 10.3477 90.8583 10.7988 90.8114 11.3379C90.7763 11.877 90.7411 12.5215 90.7059 13.2715C90.6825 14.0098 90.6708 14.877 90.6708 15.873V27.8262C90.6708 28.9043 90.5243 29.9531 90.2313 30.9727C89.9501 32.0039 89.4638 32.918 88.7723 33.7148C88.0927 34.5117 87.1903 35.1504 86.0653 35.6309C84.9403 36.1113 83.5399 36.3516 81.8641 36.3516C81.2782 36.3516 80.6864 36.293 80.0888 36.1758C79.4911 36.0703 78.9227 35.9355 78.3837 35.7715C77.8446 35.6191 77.3583 35.4492 76.9247 35.2617C76.4911 35.0742 76.1454 34.9102 75.8876 34.7695L75.3427 31.3945L75.6239 31.3242C75.9052 31.9336 76.286 32.4668 76.7665 32.9238C77.2587 33.3926 77.7919 33.7793 78.3661 34.084C78.9403 34.4004 79.5321 34.6348 80.1415 34.7871C80.7626 34.9512 81.3368 35.0332 81.8641 35.0332ZM83.5868 26.0332C84.4305 26.0332 85.1923 25.8926 85.872 25.6113C86.5634 25.3301 87.1434 25.002 87.6122 24.627V15.873C87.6122 15.2168 87.6063 14.625 87.5946 14.0977C87.5829 13.5586 87.577 13.0723 87.577 12.6387C87.2958 12.2051 86.9677 11.8242 86.5927 11.4961C86.2294 11.1562 85.8368 10.875 85.4149 10.6523C85.0048 10.418 84.5829 10.2422 84.1493 10.125C83.7157 9.99609 83.288 9.93164 82.8661 9.93164C81.9755 9.93164 81.1727 10.0957 80.4579 10.4238C79.743 10.752 79.1337 11.2266 78.6298 11.8477C78.1376 12.457 77.7567 13.207 77.4872 14.0977C77.2294 14.9766 77.1005 15.9785 77.1005 17.1035C77.1005 18.3691 77.2411 19.5469 77.5223 20.6367C77.8036 21.7266 78.2138 22.6758 78.7528 23.4844C79.3036 24.2812 79.9833 24.9082 80.7919 25.3652C81.6005 25.8105 82.5321 26.0332 83.5868 26.0332Z" fill="#D7D7D7"/>
<path d="M139.646 15.873C139.646 14.877 139.629 14.0098 139.594 13.2715C139.57 12.5215 139.535 11.877 139.488 11.3379C139.453 10.7988 139.4 10.3477 139.33 9.98438C139.271 9.62109 139.207 9.31641 139.136 9.07031V9H143.197V9.07031C143.103 9.33984 143.021 9.66797 142.951 10.0547C142.892 10.4414 142.845 10.9395 142.81 11.5488C143.244 11.1855 143.695 10.8281 144.164 10.4766C144.633 10.125 145.113 9.81445 145.605 9.54492C146.097 9.27539 146.595 9.05859 147.099 8.89453C147.615 8.73047 148.131 8.64844 148.646 8.64844C148.963 8.64844 149.238 8.66602 149.472 8.70117C149.707 8.72461 149.918 8.76562 150.105 8.82422C150.293 8.87109 150.463 8.92969 150.615 9C150.767 9.05859 150.914 9.11719 151.054 9.17578L150.193 12.5332L149.894 12.4629C149.754 11.9473 149.49 11.5371 149.103 11.2324C148.717 10.916 148.189 10.7578 147.521 10.7578C147.158 10.7578 146.777 10.8223 146.379 10.9512C145.98 11.0801 145.576 11.2617 145.166 11.4961C144.756 11.7188 144.345 11.9824 143.935 12.2871C143.525 12.5801 143.127 12.8906 142.74 13.2188C142.717 13.5586 142.705 13.9277 142.705 14.3262C142.705 14.7246 142.705 15.1465 142.705 15.5918V20.127C142.705 21.123 142.717 21.9961 142.74 22.7461C142.763 23.4844 142.799 24.123 142.845 24.6621C142.892 25.2012 142.945 25.6523 143.004 26.0156C143.062 26.3789 143.127 26.6836 143.197 26.9297V27H139.136V26.9297C139.207 26.6836 139.271 26.3789 139.33 26.0156C139.4 25.6523 139.453 25.2012 139.488 24.6621C139.535 24.123 139.57 23.4844 139.594 22.7461C139.629 21.9961 139.646 21.123 139.646 20.127V15.873ZM166.764 12.5332L166.518 12.5684C166.436 12.2988 166.301 12.0117 166.114 11.707C165.938 11.4023 165.704 11.1211 165.411 10.8633C165.13 10.6055 164.784 10.3945 164.374 10.2305C163.975 10.0547 163.512 9.9668 162.985 9.9668C162.622 9.9668 162.276 10.0195 161.948 10.125C161.632 10.2305 161.35 10.3887 161.104 10.5996C160.87 10.7988 160.682 11.0508 160.542 11.3555C160.401 11.6602 160.331 12.0176 160.331 12.4277C160.331 13.002 160.507 13.5527 160.858 14.0801C161.221 14.5957 161.673 15.1113 162.212 15.627C162.751 16.1309 163.331 16.6406 163.952 17.1562C164.585 17.6719 165.171 18.2109 165.71 18.7734C166.249 19.3359 166.694 19.9395 167.046 20.584C167.409 21.2168 167.591 21.9023 167.591 22.6406C167.591 23.2383 167.485 23.8242 167.274 24.3984C167.063 24.9609 166.735 25.4648 166.29 25.9102C165.856 26.3555 165.294 26.7188 164.602 27C163.923 27.2695 163.108 27.4043 162.159 27.4043C161.596 27.4043 161.069 27.3516 160.577 27.2461C160.096 27.1406 159.651 27.0117 159.241 26.8594C158.842 26.6953 158.479 26.5195 158.151 26.332C157.835 26.1328 157.553 25.9453 157.307 25.7695L157.483 22.4297H157.764C157.882 22.9805 158.057 23.4844 158.292 23.9414C158.526 24.3984 158.813 24.791 159.153 25.1191C159.505 25.4355 159.903 25.6875 160.348 25.875C160.794 26.0508 161.28 26.1387 161.807 26.1387C162.675 26.1387 163.36 25.8984 163.864 25.418C164.38 24.9375 164.637 24.3105 164.637 23.5371C164.637 22.916 164.462 22.3477 164.11 21.832C163.77 21.3047 163.337 20.8008 162.809 20.3203C162.282 19.8398 161.714 19.3594 161.104 18.8789C160.507 18.3984 159.944 17.8887 159.417 17.3496C158.889 16.7988 158.45 16.2012 158.098 15.5566C157.759 14.9004 157.589 14.1562 157.589 13.3242C157.589 12.6445 157.712 12.0234 157.958 11.4609C158.216 10.8867 158.567 10.4004 159.012 10.002C159.469 9.5918 160.009 9.27539 160.63 9.05273C161.251 8.83008 161.93 8.71875 162.669 8.71875C163.641 8.71875 164.45 8.82422 165.094 9.03516C165.751 9.23438 166.249 9.42773 166.589 9.61523L166.764 12.5332ZM188.715 15.1523C188.715 13.6055 188.404 12.4688 187.783 11.7422C187.162 11.0156 186.33 10.6523 185.287 10.6523C184.9 10.6523 184.466 10.7344 183.986 10.8984C183.517 11.0508 183.031 11.2617 182.527 11.5312C182.035 11.8008 181.543 12.1172 181.05 12.4805C180.558 12.832 180.101 13.207 179.679 13.6055V20.127C179.679 21.123 179.691 21.9961 179.715 22.7461C179.738 23.4844 179.773 24.123 179.82 24.6621C179.867 25.2012 179.92 25.6523 179.978 26.0156C180.037 26.3789 180.101 26.6836 180.172 26.9297V27H176.111V26.9297C176.181 26.6836 176.246 26.3789 176.304 26.0156C176.375 25.6523 176.427 25.2012 176.463 24.6621C176.509 24.123 176.545 23.4844 176.568 22.7461C176.603 21.9961 176.621 21.123 176.621 20.127V7.59375C176.621 6.59766 176.603 5.73047 176.568 4.99219C176.545 4.24219 176.509 3.59766 176.463 3.05859C176.427 2.51953 176.375 2.06836 176.304 1.70508C176.246 1.3418 176.181 1.03711 176.111 0.791016V0.720703H180.172V0.791016C180.101 1.03711 180.037 1.3418 179.978 1.70508C179.92 2.06836 179.867 2.51953 179.82 3.05859C179.773 3.59766 179.738 4.24219 179.715 4.99219C179.691 5.73047 179.679 6.59766 179.679 7.59375V12.0938C180.148 11.6719 180.664 11.2559 181.226 10.8457C181.8 10.4355 182.392 10.0664 183.002 9.73828C183.611 9.41016 184.232 9.14648 184.865 8.94727C185.498 8.74805 186.119 8.64844 186.728 8.64844C187.642 8.64844 188.416 8.80664 189.049 9.12305C189.693 9.43945 190.215 9.85547 190.613 10.3711C191.023 10.8867 191.316 11.4785 191.492 12.1465C191.679 12.8027 191.773 13.4707 191.773 14.1504V20.127C191.773 21.123 191.785 21.9961 191.808 22.7461C191.832 23.4844 191.867 24.123 191.914 24.6621C191.961 25.2012 192.013 25.6523 192.072 26.0156C192.131 26.3789 192.195 26.6836 192.265 26.9297V27H188.205V26.9297C188.275 26.6836 188.34 26.3789 188.398 26.0156C188.468 25.6523 188.521 25.2012 188.556 24.6621C188.603 24.123 188.638 23.4844 188.662 22.7461C188.697 21.9961 188.715 21.123 188.715 20.127V15.1523ZM200.645 17.9648C200.645 16.6406 200.891 15.416 201.383 14.291C201.876 13.1543 202.549 12.1699 203.405 11.3379C204.272 10.5059 205.292 9.85547 206.464 9.38672C207.635 8.91797 208.895 8.68359 210.243 8.68359C211.567 8.68359 212.809 8.90625 213.969 9.35156C215.141 9.78516 216.161 10.4062 217.028 11.2148C217.895 12.0234 218.575 13.0078 219.067 14.168C219.571 15.3281 219.823 16.6289 219.823 18.0703C219.823 19.2773 219.612 20.4375 219.19 21.5508C218.768 22.6641 218.147 23.6484 217.327 24.5039C216.506 25.3594 215.499 26.0449 214.303 26.5605C213.12 27.0645 211.755 27.3164 210.208 27.3164C208.895 27.3164 207.659 27.0996 206.499 26.666C205.339 26.2324 204.325 25.6113 203.458 24.8027C202.59 23.9941 201.905 23.0156 201.401 21.8672C200.897 20.707 200.645 19.4062 200.645 17.9648ZM210.612 26.0332C211.444 26.0332 212.206 25.8691 212.897 25.541C213.6 25.2129 214.204 24.7383 214.708 24.1172C215.212 23.4961 215.604 22.7402 215.885 21.8496C216.167 20.959 216.307 19.9512 216.307 18.8262C216.307 17.5605 216.173 16.3887 215.903 15.3105C215.633 14.2207 215.229 13.2832 214.69 12.498C214.163 11.7012 213.495 11.0801 212.686 10.6348C211.878 10.1895 210.934 9.9668 209.856 9.9668C209.024 9.9668 208.262 10.1309 207.571 10.459C206.88 10.7754 206.276 11.2383 205.76 11.8477C205.256 12.457 204.864 13.207 204.583 14.0977C204.301 14.9766 204.161 15.9785 204.161 17.1035C204.161 18.3691 204.296 19.5469 204.565 20.6367C204.846 21.7266 205.256 22.6758 205.796 23.4844C206.335 24.2812 207.003 24.9082 207.799 25.3652C208.608 25.8105 209.546 26.0332 210.612 26.0332ZM230.47 9V9.07031C230.447 9.12891 230.429 9.2168 230.418 9.33398C230.406 9.45117 230.4 9.55664 230.4 9.65039C230.4 10.0137 230.453 10.418 230.558 10.8633C230.664 11.2969 230.851 11.8418 231.121 12.498L235.322 22.5L239.576 12.6387C239.752 12.2051 239.939 11.7305 240.138 11.2148C240.337 10.6992 240.437 10.1777 240.437 9.65039C240.437 9.49805 240.425 9.375 240.402 9.28125C240.379 9.17578 240.355 9.10547 240.332 9.07031V9H243.496V9.07031C243.285 9.29297 243.015 9.69141 242.687 10.2656C242.371 10.8281 242.031 11.5371 241.668 12.3926L235.181 27.2461H234.144L228.132 13.2539C227.921 12.7383 227.693 12.2461 227.447 11.7773C227.212 11.2969 226.984 10.8691 226.761 10.4941C226.55 10.1191 226.363 9.80859 226.199 9.5625C226.035 9.30469 225.923 9.14062 225.865 9.07031V9H230.47Z" fill="#D8D8D8"/>
</g>
<defs>
<filter id="filter0_d" x="-2.55859" y="0.720703" width="250.054" height="43.6309" filterUnits="userSpaceOnUse" color-interpolation-filters="sRGB">
<feFlood flood-opacity="0" result="BackgroundImageFix"/>
<feColorMatrix in="SourceAlpha" type="matrix" values="0 0 0 0 0 0 0 0 0 0 0 0 0 0 0 0 0 0 127 0"/>
<feOffset dy="4"/>
<feGaussianBlur stdDeviation="2"/>
<feColorMatrix type="matrix" values="0 0 0 0 0 0 0 0 0 0 0 0 0 0 0 0 0 0 0.25 0"/>
<feBlend mode="normal" in2="BackgroundImageFix" result="effect1_dropShadow"/>
<feBlend mode="normal" in="SourceGraphic" in2="effect1_dropShadow" result="shape"/>
</filter>
</defs>
</svg>
