<svg width="245" height="41" viewBox="0 0 245 41" fill="none" xmlns="http://www.w3.org/2000/svg">
<g filter="url(#filter0_d)">
<path d="M14.76 28.36C12.336 28.36 10.152 27.832 8.208 26.776C6.264 25.696 4.728 24.172 3.6 22.204C2.496 20.236 1.944 17.968 1.944 15.4C1.944 12.808 2.496 10.54 3.6 8.596C4.728 6.628 6.264 5.116 8.208 4.06C10.152 2.98 12.336 2.44 14.76 2.44C17.184 2.44 19.368 2.98 21.312 4.06C23.256 5.116 24.78 6.628 25.884 8.596C27.012 10.54 27.576 12.808 27.576 15.4C27.576 17.968 27.012 20.236 25.884 22.204C24.78 24.172 23.256 25.696 21.312 26.776C19.368 27.832 17.184 28.36 14.76 28.36ZM14.76 26.056C16.704 26.056 18.432 25.636 19.944 24.796C21.48 23.956 22.68 22.744 23.544 21.16C24.432 19.552 24.876 17.632 24.876 15.4C24.876 13.144 24.42 11.212 23.508 9.604C22.62 7.996 21.396 6.784 19.836 5.968C18.3 5.152 16.584 4.744 14.688 4.744C12.768 4.744 11.04 5.164 9.504 6.004C7.992 6.844 6.804 8.068 5.94 9.676C5.076 11.284 4.644 13.192 4.644 15.4C4.644 17.632 5.076 19.552 5.94 21.16C6.828 22.744 8.028 23.956 9.54 24.796C11.076 25.636 12.816 26.056 14.76 26.056ZM115.756 28C114.292 28 113.152 27.616 112.336 26.848C111.52 26.08 111.112 25 111.112 23.608V7.12C111.112 5.776 111.508 4.72 112.3 3.952C113.116 3.184 114.244 2.8 115.684 2.8H126.844C127.78 2.8 128.248 3.184 128.248 3.952C128.248 4.288 128.128 4.552 127.888 4.744C127.648 4.936 127.3 5.032 126.844 5.032H115.72C115.144 5.032 114.676 5.224 114.316 5.608C113.98 5.992 113.812 6.496 113.812 7.12V13.996H124.108C125.044 13.996 125.512 14.38 125.512 15.148C125.512 15.508 125.38 15.784 125.116 15.976C124.876 16.168 124.54 16.264 124.108 16.264H113.812V23.68C113.812 24.304 113.98 24.808 114.316 25.192C114.676 25.576 115.144 25.768 115.72 25.768H127.636C128.572 25.768 129.04 26.14 129.04 26.884C129.04 27.244 128.908 27.52 128.644 27.712C128.404 27.904 128.068 28 127.636 28H115.756Z" fill="#880000"/>
<path d="M36.9833 28.36C36.5753 28.36 36.2513 28.24 36.0113 28C35.7953 27.736 35.6873 27.376 35.6873 26.92V2.116C35.6873 1.66 35.7953 1.312 36.0113 1.072C36.2513 0.807998 36.5753 0.675998 36.9833 0.675998C37.3913 0.675998 37.7153 0.807998 37.9553 1.072C38.1953 1.312 38.3153 1.66 38.3153 2.116V26.92C38.3153 27.352 38.1953 27.7 37.9553 27.964C37.7393 28.228 37.4153 28.36 36.9833 28.36ZM55.807 28.36C52.687 28.36 50.275 27.556 48.571 25.948C46.867 24.34 46.015 22.06 46.015 19.108C46.015 16.276 46.879 14.056 48.607 12.448C50.335 10.816 52.699 10 55.699 10C57.547 10 59.191 10.3 60.631 10.9C62.071 11.476 63.187 12.304 63.979 13.384C64.795 14.44 65.203 15.652 65.203 17.02C65.203 18.028 64.915 18.808 64.339 19.36C63.787 19.912 63.019 20.188 62.035 20.188H48.715C48.715 22.036 49.339 23.488 50.587 24.544C51.835 25.576 53.575 26.092 55.807 26.092C57.175 26.092 58.351 25.948 59.335 25.66C60.319 25.348 61.243 24.856 62.107 24.184C62.563 23.8 62.935 23.608 63.223 23.608C63.439 23.608 63.643 23.704 63.835 23.896C64.171 24.184 64.339 24.484 64.339 24.796C64.339 25.036 64.195 25.3 63.907 25.588C62.923 26.524 61.771 27.22 60.451 27.676C59.131 28.132 57.583 28.36 55.807 28.36ZM61.243 18.064C61.675 18.064 61.999 17.98 62.215 17.812C62.431 17.62 62.539 17.284 62.539 16.804C62.539 15.94 62.251 15.16 61.675 14.464C61.099 13.768 60.283 13.228 59.227 12.844C58.195 12.46 57.019 12.268 55.699 12.268C53.563 12.268 51.871 12.796 50.623 13.852C49.399 14.884 48.787 16.288 48.787 18.064H61.243ZM80.8473 37.036C79.1193 37.036 77.5593 36.784 76.1673 36.28C74.7753 35.776 73.6473 35.044 72.7833 34.084C72.5913 33.892 72.4953 33.652 72.4953 33.364C72.4953 33.004 72.6873 32.692 73.0713 32.428C73.3113 32.26 73.5393 32.176 73.7553 32.176C74.1153 32.176 74.4753 32.368 74.8353 32.752C75.4113 33.376 76.1793 33.88 77.1393 34.264C78.0993 34.648 79.2513 34.84 80.5953 34.84C82.9473 34.84 84.7473 34.276 85.9953 33.148C87.2433 32.02 87.8673 30.388 87.8673 28.252V24.868C87.0513 25.948 85.9833 26.836 84.6633 27.532C83.3433 28.204 81.8073 28.54 80.0553 28.54C77.0073 28.54 74.6553 27.724 72.9993 26.092C71.3433 24.46 70.5153 22.276 70.5153 19.54C70.5153 17.692 70.8753 16.06 71.5953 14.644C72.3393 13.204 73.4433 12.076 74.9073 11.26C76.3713 10.42 78.1713 10 80.3073 10C81.8913 10 83.3193 10.324 84.5913 10.972C85.8633 11.62 86.9553 12.544 87.8673 13.744V11.368C87.8673 10.984 87.9873 10.66 88.2273 10.396C88.4913 10.132 88.8153 10 89.1993 10C89.5833 10 89.8953 10.132 90.1353 10.396C90.3753 10.636 90.4953 10.96 90.4953 11.368V28.252C90.4953 30.052 90.0873 31.612 89.2713 32.932C88.4793 34.252 87.3513 35.26 85.8873 35.956C84.4233 36.676 82.7433 37.036 80.8473 37.036ZM80.3073 26.2C81.6033 26.2 82.8153 25.948 83.9433 25.444C85.0953 24.94 86.0313 24.172 86.7513 23.14C87.4713 22.084 87.8313 20.8 87.8313 19.288C87.8313 17.944 87.5433 16.744 86.9673 15.688C86.3913 14.632 85.5513 13.804 84.4473 13.204C83.3433 12.58 82.0233 12.268 80.4873 12.268C78.1593 12.268 76.3593 12.904 75.0873 14.176C73.8153 15.424 73.1793 17.212 73.1793 19.54C73.1793 21.604 73.7793 23.236 74.9793 24.436C76.2033 25.612 77.9793 26.2 80.3073 26.2ZM137.745 28.36C137.337 28.36 137.013 28.24 136.773 28C136.557 27.736 136.449 27.376 136.449 26.92V11.44C136.449 10.984 136.557 10.636 136.773 10.396C136.989 10.132 137.313 10 137.745 10C138.153 10 138.465 10.132 138.681 10.396C138.921 10.636 139.041 10.984 139.041 11.44V13.6C140.673 11.44 142.929 10.36 145.809 10.36H146.709C147.165 10.36 147.525 10.468 147.789 10.684C148.053 10.876 148.185 11.152 148.185 11.512C148.185 11.872 148.053 12.148 147.789 12.34C147.525 12.532 147.165 12.628 146.709 12.628H145.701C143.661 12.628 142.041 13.216 140.841 14.392C139.665 15.544 139.077 17.116 139.077 19.108V26.92C139.077 27.352 138.957 27.7 138.717 27.964C138.501 28.228 138.177 28.36 137.745 28.36ZM161.586 28.36C159.906 28.36 158.322 28.048 156.834 27.424C155.346 26.776 154.17 25.888 153.306 24.76C153.138 24.52 153.054 24.28 153.054 24.04C153.054 23.8 153.114 23.596 153.234 23.428C153.378 23.236 153.558 23.092 153.774 22.996C153.966 22.924 154.122 22.888 154.242 22.888C154.458 22.888 154.638 22.948 154.782 23.068C154.95 23.164 155.142 23.332 155.358 23.572C156.918 25.228 158.994 26.056 161.586 26.056C162.834 26.056 163.842 25.84 164.61 25.408C165.378 24.976 165.762 24.376 165.762 23.608C165.762 23.056 165.606 22.612 165.294 22.276C165.006 21.916 164.502 21.592 163.782 21.304C163.086 20.992 161.934 20.56 160.326 20.008C158.766 19.48 157.542 18.976 156.654 18.496C155.766 18.016 155.106 17.476 154.674 16.876C154.242 16.252 154.026 15.496 154.026 14.608C154.026 13.216 154.626 12.1 155.826 11.26C157.05 10.42 158.67 10 160.686 10C162.174 10 163.554 10.264 164.826 10.792C166.098 11.296 167.058 11.98 167.706 12.844C167.898 13.108 167.994 13.36 167.994 13.6C167.994 13.96 167.802 14.248 167.418 14.464C167.178 14.608 166.938 14.68 166.698 14.68C166.29 14.68 165.906 14.5 165.546 14.14C164.922 13.516 164.238 13.06 163.494 12.772C162.75 12.46 161.802 12.304 160.65 12.304C159.378 12.304 158.406 12.508 157.734 12.916C157.062 13.324 156.726 13.9 156.726 14.644C156.726 15.196 156.858 15.64 157.122 15.976C157.41 16.288 157.854 16.576 158.454 16.84C159.078 17.08 160.158 17.452 161.694 17.956C163.422 18.532 164.754 19.084 165.69 19.612C166.65 20.116 167.334 20.68 167.742 21.304C168.174 21.928 168.39 22.696 168.39 23.608C168.39 25.048 167.754 26.2 166.482 27.064C165.234 27.928 163.602 28.36 161.586 28.36ZM176.728 28.36C176.32 28.36 175.996 28.24 175.756 28C175.54 27.736 175.432 27.376 175.432 26.92V2.116C175.432 1.66 175.54 1.312 175.756 1.072C175.996 0.807998 176.32 0.675998 176.728 0.675998C177.136 0.675998 177.46 0.807998 177.7 1.072C177.94 1.312 178.06 1.66 178.06 2.116V13.564C178.948 12.388 180.016 11.5 181.264 10.9C182.536 10.3 183.916 10 185.404 10C187.684 10 189.436 10.636 190.66 11.908C191.908 13.18 192.532 15.004 192.532 17.38V26.92C192.532 27.376 192.412 27.736 192.172 28C191.932 28.24 191.608 28.36 191.2 28.36C190.768 28.36 190.444 28.24 190.228 28C190.012 27.736 189.904 27.376 189.904 26.92V17.38C189.904 13.972 188.296 12.268 185.08 12.268C182.968 12.268 181.264 12.892 179.968 14.14C178.696 15.388 178.06 17.044 178.06 19.108V26.92C178.06 27.352 177.94 27.7 177.7 27.964C177.484 28.228 177.16 28.36 176.728 28.36ZM208.72 28.36C206.632 28.36 204.844 27.94 203.356 27.1C201.868 26.26 200.74 25.144 199.972 23.752C199.228 22.336 198.856 20.812 198.856 19.18C198.856 17.548 199.228 16.036 199.972 14.644C200.74 13.228 201.868 12.1 203.356 11.26C204.844 10.42 206.632 10 208.72 10C210.808 10 212.584 10.42 214.048 11.26C215.536 12.1 216.652 13.228 217.396 14.644C218.164 16.036 218.548 17.548 218.548 19.18C218.548 20.812 218.164 22.336 217.396 23.752C216.652 25.144 215.536 26.26 214.048 27.1C212.584 27.94 210.808 28.36 208.72 28.36ZM208.72 26.092C210.88 26.092 212.608 25.48 213.904 24.256C215.224 23.032 215.884 21.34 215.884 19.18C215.884 17.02 215.224 15.328 213.904 14.104C212.608 12.88 210.88 12.268 208.72 12.268C206.536 12.268 204.784 12.88 203.464 14.104C202.168 15.328 201.52 17.02 201.52 19.18C201.52 21.34 202.168 23.032 203.464 24.256C204.784 25.48 206.536 26.092 208.72 26.092ZM232.825 28.36C231.673 28.36 230.689 28.012 229.873 27.316C229.081 26.62 228.421 25.54 227.893 24.076L223.429 11.728C223.381 11.536 223.357 11.404 223.357 11.332C223.357 11.068 223.441 10.828 223.609 10.612C223.777 10.372 223.993 10.204 224.257 10.108C224.377 10.06 224.557 10.036 224.797 10.036C225.085 10.036 225.325 10.108 225.517 10.252C225.733 10.396 225.889 10.6 225.985 10.864L230.521 23.356C230.905 24.388 231.265 25.108 231.601 25.516C231.937 25.924 232.345 26.128 232.825 26.128C233.305 26.128 233.713 25.936 234.049 25.552C234.409 25.144 234.769 24.436 235.129 23.428L239.665 10.864C239.881 10.312 240.277 10.036 240.853 10.036C241.285 10.036 241.633 10.168 241.897 10.432C242.185 10.672 242.329 10.972 242.329 11.332C242.329 11.404 242.305 11.536 242.257 11.728L237.721 24.148C237.193 25.612 236.533 26.68 235.741 27.352C234.949 28.024 233.977 28.36 232.825 28.36Z" fill="#959595"/>
</g>
<defs>
<filter id="filter0_d" x="-2.056" y="0.675995" width="248.385" height="44.36" filterUnits="userSpaceOnUse" color-interpolation-filters="sRGB">
<feFlood flood-opacity="0" result="BackgroundImageFix"/>
<feColorMatrix in="SourceAlpha" type="matrix" values="0 0 0 0 0 0 0 0 0 0 0 0 0 0 0 0 0 0 127 0"/>
<feOffset dy="4"/>
<feGaussianBlur stdDeviation="2"/>
<feColorMatrix type="matrix" values="0 0 0 0 0 0 0 0 0 0 0 0 0 0 0 0 0 0 0.25 0"/>
<feBlend mode="normal" in2="BackgroundImageFix" result="effect1_dropShadow"/>
<feBlend mode="normal" in="SourceGraphic" in2="effect1_dropShadow" result="shape"/>
</filter>
</defs>
</svg>
