<svg width="245" height="47" viewBox="0 0 245 47" fill="none" xmlns="http://www.w3.org/2000/svg">
<g filter="url(#filter0_d)">
<path d="M1.62 22.896C1.62 20.592 1.98 18.588 2.7 16.884C3.444 15.18 4.404 13.764 5.58 12.636C6.756 11.508 8.052 10.668 9.468 10.116C10.908 9.564 12.336 9.288 13.752 9.288C15.696 9.288 17.424 9.648 18.936 10.368C20.448 11.088 21.72 12.072 22.752 13.32C23.784 14.544 24.564 15.984 25.092 17.64C25.62 19.296 25.884 21.048 25.884 22.896C25.884 24.984 25.56 26.868 24.912 28.548C24.264 30.204 23.376 31.632 22.248 32.832C21.144 34.008 19.86 34.92 18.396 35.568C16.932 36.192 15.384 36.504 13.752 36.504C12.072 36.504 10.488 36.192 9 35.568C7.536 34.944 6.252 34.056 5.148 32.904C4.068 31.728 3.204 30.3 2.556 28.62C1.932 26.94 1.62 25.032 1.62 22.896ZM5.292 22.896C5.292 24.528 5.496 26.016 5.904 27.36C6.336 28.704 6.924 29.868 7.668 30.852C8.436 31.812 9.336 32.568 10.368 33.12C11.4 33.648 12.528 33.912 13.752 33.912C15.024 33.912 16.176 33.624 17.208 33.048C18.264 32.472 19.152 31.692 19.872 30.708C20.616 29.724 21.192 28.56 21.6 27.216C22.008 25.872 22.212 24.432 22.212 22.896C22.212 21.216 21.984 19.704 21.528 18.36C21.096 16.992 20.496 15.828 19.728 14.868C18.96 13.908 18.06 13.176 17.028 12.672C15.996 12.168 14.904 11.916 13.752 11.916C12.6 11.916 11.508 12.168 10.476 12.672C9.444 13.176 8.544 13.908 7.776 14.868C7.008 15.828 6.396 16.992 5.94 18.36C5.508 19.704 5.292 21.216 5.292 22.896ZM111.816 9.828H126.72V12.42H115.236V33.408H127.26V36H111.816V9.828ZM125.496 21.024V23.544H116.604C116.868 22.848 117.228 22.26 117.684 21.78C118.164 21.276 118.836 21.024 119.7 21.024H125.496Z" fill="#FF7043"/>
<path d="M39.1326 36H35.8566V8.712H39.1326V36ZM60.5492 24.588C60.6212 23.892 60.5732 23.244 60.4052 22.644C60.2372 22.044 59.9732 21.516 59.6132 21.06C59.2772 20.604 58.8572 20.256 58.3532 20.016C57.8492 19.752 57.3092 19.62 56.7332 19.62C55.2212 19.62 53.9852 20.22 53.0252 21.42C52.0892 22.62 51.6212 24.336 51.6212 26.568C51.6212 27.648 51.7652 28.632 52.0532 29.52C52.3412 30.384 52.7372 31.14 53.2412 31.788C53.7692 32.412 54.3812 32.904 55.0772 33.264C55.7732 33.6 56.5292 33.768 57.3452 33.768C58.1852 33.768 58.9652 33.684 59.6852 33.516C60.4292 33.348 61.3172 33 62.3492 32.472L63.2492 34.848C62.0972 35.448 60.9812 35.844 59.9012 36.036C58.8212 36.252 57.8492 36.36 56.9852 36.36C55.6652 36.36 54.4652 36.12 53.3852 35.64C52.3052 35.136 51.3812 34.452 50.6132 33.588C49.8692 32.7 49.2932 31.656 48.8852 30.456C48.4772 29.256 48.2732 27.948 48.2732 26.532C48.2732 25.068 48.4772 23.76 48.8852 22.608C49.2932 21.432 49.8812 20.436 50.6492 19.62C51.4172 18.78 52.3412 18.144 53.4212 17.712C54.5012 17.256 55.7252 17.028 57.0932 17.028C58.3172 17.028 59.4092 17.304 60.3692 17.856C61.3292 18.408 62.0972 19.152 62.6732 20.088C63.2492 21 63.5972 22.056 63.7172 23.256C63.8612 24.456 63.7412 25.704 63.3572 27H52.9172C53.1812 26.304 53.5412 25.728 53.9972 25.272C54.4532 24.816 55.1132 24.588 55.9772 24.588H60.5492ZM72.1032 26.784C72.1032 25.32 72.3312 23.988 72.7872 22.788C73.2672 21.588 73.9272 20.568 74.7672 19.728C75.6312 18.864 76.6392 18.204 77.7912 17.748C78.9672 17.268 80.2512 17.028 81.6432 17.028C82.6512 17.028 83.6472 17.124 84.6312 17.316C85.6392 17.484 86.7672 17.772 88.0152 18.18V36C88.0152 37.344 87.8112 38.568 87.4032 39.672C87.0192 40.776 86.4552 41.724 85.7112 42.516C84.9672 43.308 84.0672 43.92 83.0112 44.352C81.9792 44.784 80.8032 45 79.4832 45C78.5472 45 77.5272 44.904 76.4232 44.712C75.3192 44.52 74.1672 44.112 72.9672 43.488L73.9032 41.04C74.9352 41.544 75.8832 41.892 76.7472 42.084C77.6112 42.3 78.4272 42.408 79.1952 42.408C79.9392 42.408 80.6472 42.288 81.3192 42.048C81.9912 41.808 82.5792 41.436 83.0832 40.932C83.5872 40.452 83.9832 39.828 84.2712 39.06C84.5832 38.316 84.7392 37.428 84.7392 36.396V20.016C84.1872 19.872 83.6712 19.776 83.1912 19.728C82.7112 19.656 82.1952 19.62 81.6432 19.62C79.8432 19.62 78.3912 20.232 77.2872 21.456C76.1832 22.68 75.6312 24.456 75.6312 26.784C75.6312 27.792 75.7272 28.74 75.9192 29.628C76.1352 30.492 76.4472 31.236 76.8552 31.86C77.2872 32.46 77.8032 32.916 78.4032 33.228C79.0272 33.54 79.7592 33.648 80.5992 33.552C81.1272 33.504 81.6312 33.576 82.1112 33.768C82.6152 33.96 83.0832 34.332 83.5152 34.884C82.9152 35.292 82.3032 35.604 81.6792 35.82C81.0552 36.036 80.4672 36.168 79.9152 36.216C78.8352 36.312 77.8152 36.156 76.8552 35.748C75.9192 35.316 75.0912 34.68 74.3712 33.84C73.6752 33 73.1232 31.98 72.7152 30.78C72.3072 29.58 72.1032 28.248 72.1032 26.784Z" fill="#D7D7D7"/>
<path d="M138.749 17.388C139.133 17.796 139.397 18.24 139.541 18.72C139.709 19.176 139.853 19.692 139.973 20.268V20.916L140.261 20.268C140.741 19.356 141.413 18.612 142.277 18.036C143.141 17.436 144.065 17.136 145.049 17.136C145.529 17.136 146.117 17.232 146.813 17.424L146.381 20.232C145.997 20.136 145.661 20.076 145.373 20.052C145.109 20.028 144.869 20.016 144.653 20.016C144.101 20.016 143.549 20.136 142.997 20.376C142.445 20.592 141.953 20.94 141.521 21.42C141.089 21.9 140.729 22.524 140.441 23.292C140.177 24.06 140.045 24.984 140.045 26.064V36H136.841V23.688C136.841 22.584 136.793 21.468 136.697 20.34C136.601 19.212 136.457 18.228 136.265 17.388H138.749ZM154.252 32.472C155.164 32.928 156.076 33.264 156.988 33.48C157.924 33.672 158.776 33.768 159.544 33.768C160.624 33.768 161.428 33.516 161.956 33.012C162.484 32.508 162.748 31.86 162.748 31.068C162.748 30.42 162.532 29.88 162.1 29.448C161.668 29.016 161.128 28.632 160.48 28.296C159.832 27.936 159.136 27.588 158.392 27.252C157.648 26.916 156.952 26.52 156.304 26.064C155.656 25.608 155.116 25.056 154.684 24.408C154.252 23.736 154.036 22.896 154.036 21.888C154.036 21.312 154.156 20.736 154.396 20.16C154.66 19.584 155.032 19.068 155.512 18.612C155.992 18.156 156.592 17.784 157.312 17.496C158.032 17.208 158.86 17.064 159.796 17.064C160.492 17.064 161.248 17.136 162.064 17.28C162.88 17.4 163.792 17.64 164.8 18L163.972 20.34C163.204 20.076 162.496 19.896 161.848 19.8C161.224 19.68 160.66 19.62 160.156 19.62C159.316 19.62 158.62 19.812 158.068 20.196C157.54 20.58 157.276 21.144 157.276 21.888C157.276 22.536 157.492 23.076 157.924 23.508C158.356 23.916 158.896 24.3 159.544 24.66C160.192 24.996 160.888 25.344 161.632 25.704C162.376 26.04 163.072 26.448 163.72 26.928C164.368 27.384 164.908 27.96 165.34 28.656C165.772 29.352 165.988 30.216 165.988 31.248C165.988 31.944 165.82 32.604 165.484 33.228C165.172 33.828 164.728 34.368 164.152 34.848C163.6 35.304 162.964 35.676 162.244 35.964C161.524 36.228 160.768 36.36 159.976 36.36C159.064 36.36 158.08 36.276 157.024 36.108C155.992 35.964 154.78 35.544 153.388 34.848L154.252 32.472ZM174.376 36V8.712H177.724V36H174.376ZM186.004 22.464C186.004 21.624 185.836 20.94 185.5 20.412C185.188 19.884 184.684 19.62 183.988 19.62C183.7 19.62 183.46 19.656 183.268 19.728C183.1 19.776 182.848 19.836 182.512 19.908C181.816 20.076 181.18 20.088 180.604 19.944C180.028 19.8 179.488 19.464 178.984 18.936C180.256 18.192 181.312 17.688 182.152 17.424C182.992 17.16 183.748 17.028 184.42 17.028C185.116 17.028 185.764 17.124 186.364 17.316C186.988 17.484 187.528 17.796 187.984 18.252C188.44 18.708 188.8 19.308 189.064 20.052C189.328 20.796 189.46 21.72 189.46 22.824V36H186.004V22.464ZM198.101 26.676C198.101 25.02 198.353 23.592 198.857 22.392C199.361 21.168 200.021 20.16 200.837 19.368C201.653 18.576 202.577 17.988 203.609 17.604C204.665 17.22 205.721 17.028 206.777 17.028C208.145 17.028 209.369 17.28 210.449 17.784C211.529 18.288 212.441 18.972 213.185 19.836C213.929 20.7 214.493 21.72 214.877 22.896C215.261 24.072 215.453 25.332 215.453 26.676C215.453 28.236 215.213 29.628 214.733 30.852C214.277 32.052 213.653 33.06 212.861 33.876C212.069 34.692 211.145 35.316 210.089 35.748C209.033 36.156 207.929 36.36 206.777 36.36C205.577 36.36 204.449 36.156 203.393 35.748C202.337 35.316 201.413 34.692 200.621 33.876C199.853 33.06 199.241 32.052 198.785 30.852C198.329 29.628 198.101 28.236 198.101 26.676ZM201.665 26.676C201.665 27.732 201.773 28.692 201.989 29.556C202.229 30.42 202.565 31.164 202.997 31.788C203.429 32.412 203.957 32.904 204.581 33.264C205.229 33.6 205.961 33.768 206.777 33.768C207.641 33.768 208.397 33.588 209.045 33.228C209.693 32.844 210.221 32.328 210.629 31.68C211.061 31.032 211.373 30.276 211.565 29.412C211.781 28.548 211.889 27.636 211.889 26.676C211.889 25.476 211.745 24.432 211.457 23.544C211.193 22.656 210.821 21.924 210.341 21.348C209.885 20.772 209.345 20.34 208.721 20.052C208.097 19.764 207.449 19.62 206.777 19.62C206.081 19.62 205.421 19.764 204.797 20.052C204.197 20.34 203.657 20.772 203.177 21.348C202.721 21.924 202.349 22.656 202.061 23.544C201.797 24.432 201.665 25.476 201.665 26.676ZM228.932 36L221.948 17.388H225.548L230.516 31.896L230.804 32.796L231.056 31.896L235.988 17.388H239.444L232.46 36H228.932Z" fill="#D8D8D8"/>
</g>
<defs>
<filter id="filter0_d" x="-0.380005" y="0.712006" width="247.824" height="46.288" filterUnits="userSpaceOnUse" color-interpolation-filters="sRGB">
<feFlood flood-opacity="0" result="BackgroundImageFix"/>
<feColorMatrix in="SourceAlpha" type="matrix" values="0 0 0 0 0 0 0 0 0 0 0 0 0 0 0 0 0 0 127 0"/>
<feOffset dx="3" dy="-3"/>
<feGaussianBlur stdDeviation="2.5"/>
<feColorMatrix type="matrix" values="0 0 0 0 0 0 0 0 0 0 0 0 0 0 0 0 0 0 0.15 0"/>
<feBlend mode="normal" in2="BackgroundImageFix" result="effect1_dropShadow"/>
<feBlend mode="normal" in="SourceGraphic" in2="effect1_dropShadow" result="shape"/>
</filter>
</defs>
</svg>
