<?xml version="1.0" encoding="iso-8859-1"?>
<!-- Generator: Adobe Illustrator 19.0.0, SVG Export Plug-In . SVG Version: 6.00 Build 0)  -->
<svg version="1.1" id="Layer_1" xmlns="http://www.w3.org/2000/svg" xmlns:xlink="http://www.w3.org/1999/xlink" x="0px" y="0px"
	 viewBox="0 0 512 512" style="enable-background:new 0 0 512 512;" xml:space="preserve">
<path d="M483.248,44.88C499.056,44.88,512,57.824,512,73.632V467.12H0V73.632C0,57.824,12.944,44.88,28.752,44.88
	C28.752,44.88,483.248,44.88,483.248,44.88z"/>
<g style="opacity:0.2;">
	<path style="fill:#FFFFFF;" d="M28.752,44.88C12.944,44.88,0,57.824,0,73.632v25.44h115.888L147.04,44.88H28.752z"/>
</g>
<g>
	<circle style="fill:#999999;" cx="40.528" cy="71.968" r="8.192"/>
	<circle style="fill:#999999;" cx="65.088" cy="71.968" r="8.192"/>
	<circle style="fill:#999999;" cx="89.648" cy="71.968" r="8.192"/>
</g>
<polygon style="fill:#FFFFFF;" points="471.488,67.168 468.64,69.984 475.76,77.088 458.224,77.088 458.224,81.088 475.76,81.088 
	468.64,88.192 471.488,91.024 483.408,79.088 "/>
<rect x="155.472" y="88.944" style="fill:#E21B1B;" width="281.984" height="3.184"/>
<polygon style="fill:#999999;" points="426.72,67.952 419.056,77.856 411.408,67.952 "/>
<path d="M498,453.12H14V113.088h484V453.12z M18,449.12h476V117.088H18V449.12z"/>
<path style="fill:#666666;" d="M497.584,452.72H14.4V113.504h483.184L497.584,452.72z M17.584,449.536H494.4V116.688H17.584V449.536
	z"/>
<g>
	<path style="fill:#FFFFFF;" d="M179.36,80.496l-4.608-15.04h2.64l2.4,8.688l0.896,3.232c0.032-0.16,0.304-1.2,0.784-3.104
		l2.384-8.816h2.624l2.256,8.72l0.752,2.88l0.864-2.912l2.576-8.688h2.48l-4.704,15.04h-2.656l-2.384-9.008l-0.592-2.56
		l-3.04,11.584h-2.672V80.496z"/>
	<path style="fill:#FFFFFF;" d="M200.336,80.496l-4.608-15.04h2.64l2.4,8.688l0.896,3.232c0.032-0.16,0.304-1.2,0.784-3.104
		l2.384-8.816h2.624l2.256,8.72l0.752,2.88l0.864-2.912l2.576-8.688h2.48l-4.704,15.04h-2.656l-2.384-9.008l-0.592-2.56
		l-3.04,11.584h-2.672V80.496z"/>
	<path style="fill:#FFFFFF;" d="M221.28,80.496l-4.608-15.04h2.64l2.4,8.688l0.896,3.232c0.032-0.16,0.304-1.2,0.784-3.104
		l2.384-8.816h2.624l2.256,8.72l0.752,2.88l0.864-2.912l2.576-8.688h2.48l-4.704,15.04h-2.656l-2.384-9.008l-0.592-2.56
		l-3.04,11.584h-2.672V80.496z"/>
	<path style="fill:#FFFFFF;" d="M238.592,80.496v-2.912h2.912v2.912H238.592z"/>
</g>
<g>
	<path style="fill:#E21B1B;" d="M70.416,232.352l10.032,38.496c2.192,8.448,4.224,16.288,5.632,24.112h0.464
		c1.712-7.664,4.224-15.808,6.72-23.952l12.368-38.656H117.2l11.744,37.872c2.816,9.072,4.992,17.056,6.72,24.736h0.464
		c1.248-7.664,3.312-15.664,5.808-24.576l10.784-38.032h13.632l-24.4,75.744h-12.544l-11.6-36.16
		c-2.64-8.432-4.832-15.936-6.704-24.864h-0.32c-1.872,9.072-4.224,16.912-6.88,25.024l-12.224,36H79.2l-22.88-75.744H70.416z"/>
	<path style="fill:#E21B1B;" d="M187.408,232.352l10.032,38.496c2.192,8.448,4.224,16.288,5.632,24.112h0.464
		c1.712-7.664,4.224-15.808,6.72-23.952l12.368-38.656h11.568l11.744,37.872c2.816,9.072,4.992,17.056,6.72,24.736h0.464
		c1.248-7.664,3.312-15.664,5.808-24.576l10.784-38.032h13.632l-24.4,75.744h-12.528l-11.6-36.16
		c-2.656-8.432-4.848-15.952-6.72-24.88h-0.32c-1.872,9.072-4.224,16.912-6.88,25.024l-12.224,36h-12.496l-22.88-75.744h14.112
		V232.352z"/>
	<path style="fill:#E21B1B;" d="M304.448,232.352l10,38.496c2.192,8.448,4.224,16.288,5.632,24.112h0.464
		c1.712-7.664,4.256-15.808,6.752-23.952l12.336-38.656h11.6l11.744,37.872c2.816,9.072,4.992,17.056,6.72,24.736h0.464
		c1.248-7.664,3.28-15.664,5.776-24.576l10.816-38.032h13.6l-24.4,75.744h-12.496l-11.6-36.16c-2.656-8.432-4.848-15.952-6.72-24.88
		h-0.32c-1.872,9.072-4.256,16.912-6.912,25.024l-12.192,36h-12.528l-22.848-75.744h14.112V232.352z"/>
</g>
<g>
	<path style="fill:#FFFFFF;" d="M342.144,369.632c-32.464,0-63.248-15.696-82.336-42l9.056-6.592
		c16.992,23.424,44.384,37.408,73.28,37.408c49.888,0,90.496-40.608,90.496-90.496s-40.608-90.496-90.496-90.496
		c-33.488,0-64.096,18.368-79.888,47.952l-9.872-5.28c17.744-33.216,52.144-53.856,89.76-53.856
		c56.08,0,101.68,45.616,101.68,101.68S398.224,369.632,342.144,369.632z"/>
	<polygon style="fill:#FFFFFF;" points="447.776,396.752 400.08,348.976 408,341.056 455.68,388.848 	"/>
</g>
<g>
</g>
<g>
</g>
<g>
</g>
<g>
</g>
<g>
</g>
<g>
</g>
<g>
</g>
<g>
</g>
<g>
</g>
<g>
</g>
<g>
</g>
<g>
</g>
<g>
</g>
<g>
</g>
<g>
</g>
</svg>
