<?xml version="1.0" encoding="iso-8859-1"?>
<!-- Generator: Adobe Illustrator 19.0.0, SVG Export Plug-In . SVG Version: 6.00 Build 0)  -->
<svg version="1.1" id="Layer_1" xmlns="http://www.w3.org/2000/svg" xmlns:xlink="http://www.w3.org/1999/xlink" x="0px" y="0px"
	 viewBox="0 0 512 512" style="enable-background:new 0 0 512 512;" xml:space="preserve">
<path d="M483.248,44.88C499.056,44.88,512,57.824,512,73.632V467.12H0V73.632C0,57.824,12.944,44.88,28.752,44.88
	C28.752,44.88,483.248,44.88,483.248,44.88z"/>
<g style="opacity:0.2;">
	<path style="fill:#FFFFFF;" d="M28.752,44.88C12.944,44.88,0,57.824,0,73.632v25.44h115.888L147.04,44.88H28.752z"/>
</g>
<g>
	<circle style="fill:#999999;" cx="40.528" cy="71.968" r="8.192"/>
	<circle style="fill:#999999;" cx="65.088" cy="71.968" r="8.192"/>
	<circle style="fill:#999999;" cx="89.648" cy="71.968" r="8.192"/>
</g>
<polygon style="fill:#FFFFFF;" points="471.488,67.168 468.64,69.984 475.76,77.088 458.224,77.088 458.224,81.088 475.76,81.088 
	468.64,88.192 471.488,91.024 483.408,79.088 "/>
<rect x="155.472" y="88.944" style="fill:#E21B1B;" width="281.984" height="3.184"/>
<polygon style="fill:#999999;" points="426.72,67.952 419.056,77.856 411.408,67.952 "/>
<path d="M498,453.12H14V113.088h484V453.12z M18,449.12h476V117.088H18V449.12z"/>
<path style="fill:#666666;" d="M497.584,452.72H14.4V113.504h483.184L497.584,452.72z M17.584,449.536H494.4V116.688H17.584V449.536
	z"/>
<g>
	<path style="fill:#FFFFFF;" d="M179.36,80.496l-4.608-15.04h2.64l2.4,8.688l0.896,3.232c0.032-0.16,0.304-1.2,0.784-3.104
		l2.384-8.816h2.624l2.256,8.72l0.752,2.88l0.864-2.912l2.576-8.688h2.48l-4.704,15.04h-2.656l-2.384-9.008l-0.592-2.56
		l-3.04,11.584h-2.672V80.496z"/>
	<path style="fill:#FFFFFF;" d="M200.336,80.496l-4.608-15.04h2.64l2.4,8.688l0.896,3.232c0.032-0.16,0.304-1.2,0.784-3.104
		l2.384-8.816h2.624l2.256,8.72l0.752,2.88l0.864-2.912l2.576-8.688h2.48l-4.704,15.04h-2.656l-2.384-9.008l-0.592-2.56
		l-3.04,11.584h-2.672V80.496z"/>
	<path style="fill:#FFFFFF;" d="M221.28,80.496l-4.608-15.04h2.64l2.4,8.688l0.896,3.232c0.032-0.16,0.304-1.2,0.784-3.104
		l2.384-8.816h2.624l2.256,8.72l0.752,2.88l0.864-2.912l2.576-8.688h2.48l-4.704,15.04h-2.656l-2.384-9.008l-0.592-2.56
		l-3.04,11.584h-2.672V80.496z"/>
	<path style="fill:#FFFFFF;" d="M238.592,80.496v-2.912h2.912v2.912H238.592z"/>
</g>
<g>
	<path style="fill:#E21B1B;" d="M106.56,183.168l10.016,38.496c2.192,8.448,4.224,16.288,5.632,24.112h0.464
		c1.712-7.664,4.24-15.808,6.736-23.952l12.352-38.656h11.584l11.744,37.872c2.816,9.072,4.992,17.056,6.72,24.736h0.464
		c1.248-7.664,3.296-15.664,5.792-24.576l10.8-38.032h13.616l-24.4,75.744h-12.512l-11.6-36.16
		c-2.656-8.432-4.848-15.952-6.72-24.88h-0.32c-1.872,9.072-4.24,16.912-6.896,25.024l-12.208,36h-12.496l-22.864-75.744h14.096
		V183.168z"/>
	<path style="fill:#E21B1B;" d="M223.568,183.168l10.016,38.496c2.192,8.448,4.224,16.288,5.632,24.112h0.464
		c1.712-7.664,4.24-15.808,6.736-23.952l12.352-38.656h11.584l11.744,37.872c2.816,9.072,4.992,17.056,6.72,24.736h0.464
		c1.248-7.664,3.296-15.664,5.792-24.576l10.8-38.032h13.616l-24.4,75.744H282.56l-11.6-36.16c-2.656-8.432-4.848-15.952-6.72-24.88
		h-0.32c-1.872,9.072-4.24,16.912-6.896,25.024l-12.208,36h-12.512l-22.864-75.744h14.128V183.168z"/>
	<path style="fill:#E21B1B;" d="M340.576,183.168l10.016,38.496c2.192,8.448,4.224,16.288,5.632,24.112h0.464
		c1.712-7.664,4.24-15.808,6.736-23.952l12.352-38.656h11.584l11.744,37.872c2.816,9.072,4.992,17.056,6.72,24.736h0.464
		c1.248-7.664,3.296-15.664,5.792-24.576l10.8-38.032h13.616l-24.4,75.744h-12.512l-11.6-36.16
		c-2.656-8.432-4.848-15.952-6.72-24.88h-0.32c-1.872,9.072-4.24,16.912-6.896,25.024l-12.208,36h-12.512l-22.864-75.744h14.112
		V183.168z"/>
</g>
<rect x="277.792" y="371.2" style="fill:#999999;" width="43.584" height="11.2"/>
<g>
	<rect x="364.976" y="371.2" style="fill:#FFFFFF;" width="43.584" height="11.2"/>
	<rect x="103.44" y="371.2" style="fill:#FFFFFF;" width="130.768" height="11.2"/>
</g>
<rect x="190.624" y="343.808" style="fill:#999999;" width="87.184" height="11.2"/>
<g>
	<rect x="321.44" y="343.808" style="fill:#FFFFFF;" width="43.584" height="11.2"/>
	<rect x="103.44" y="316.368" style="fill:#FFFFFF;" width="43.584" height="11.2"/>
</g>
<rect x="190.624" y="316.368" style="fill:#999999;" width="43.584" height="11.2"/>
<rect x="277.792" y="316.368" style="fill:#FFFFFF;" width="43.584" height="11.2"/>
<rect x="364.976" y="316.368" style="fill:#999999;" width="43.584" height="11.2"/>
<g>
</g>
<g>
</g>
<g>
</g>
<g>
</g>
<g>
</g>
<g>
</g>
<g>
</g>
<g>
</g>
<g>
</g>
<g>
</g>
<g>
</g>
<g>
</g>
<g>
</g>
<g>
</g>
<g>
</g>
</svg>
