<?xml version="1.0" encoding="iso-8859-1"?>
<!-- Generator: Adobe Illustrator 19.0.0, SVG Export Plug-In . SVG Version: 6.00 Build 0)  -->
<svg version="1.1" id="Layer_1" xmlns="http://www.w3.org/2000/svg" xmlns:xlink="http://www.w3.org/1999/xlink" x="0px" y="0px"
	 viewBox="0 0 512 512" style="enable-background:new 0 0 512 512;" xml:space="preserve">
<rect y="99.056" style="fill:#CCCCCC;" width="512" height="368.08"/>
<rect x="16" y="115.104" style="fill:#F2F2F2;" width="480" height="336"/>
<path d="M512,99.056v-25.44c0-15.816-12.936-28.752-28.752-28.752h-368.24H28.752C12.936,44.864,0,57.8,0,73.616v25.432h512V99.056z
	"/>
<g style="opacity:0.25;">
	<path style="fill:#FFFFFF;" d="M147.032,44.864h-32.024H28.752C12.936,44.864,0,57.8,0,73.616v25.432h115.888L147.032,44.864z"/>
</g>
<circle style="fill:#FF6600;" cx="40.536" cy="71.96" r="8.184"/>
<circle style="fill:#848484;" cx="65.096" cy="71.96" r="8.184"/>
<g>
	<circle style="fill:#FFFFFF;" cx="89.648" cy="71.96" r="8.184"/>
	<path style="fill:#FFFFFF;" d="M428.256,86.336H170.88c-7.904,0-14.376-6.472-14.376-14.376l0,0
		c0-7.904,6.472-14.376,14.376-14.376h257.376c7.904,0,14.376,6.472,14.376,14.376l0,0C442.632,79.864,436.16,86.336,428.256,86.336
		z"/>
</g>
<path d="M180.576,65.4l1.968,7.56c0.432,1.672,0.832,3.2,1.112,4.752h0.096c0.336-1.512,0.832-3.112,1.32-4.72l2.432-7.592h2.28
	l2.304,7.456c0.552,1.784,0.984,3.344,1.32,4.856h0.096c0.24-1.512,0.648-3.08,1.144-4.832l2.12-7.488h2.68l-4.8,14.888h-2.464
	l-2.288-7.096c-0.52-1.656-0.952-3.144-1.32-4.888h-0.064c-0.368,1.784-0.832,3.328-1.352,4.92l-2.4,7.08h-2.464L177.8,65.408h2.776
	V65.4z"/>
<path d="M203.544,65.4l1.968,7.56c0.432,1.672,0.832,3.2,1.112,4.752h0.096c0.336-1.512,0.832-3.112,1.32-4.72l2.432-7.592h2.28
	l2.304,7.456c0.552,1.784,0.984,3.344,1.32,4.856h0.096c0.24-1.512,0.648-3.08,1.144-4.832l2.12-7.488h2.68l-4.8,14.888h-2.464
	l-2.288-7.096c-0.52-1.656-0.952-3.144-1.32-4.888h-0.064c-0.368,1.784-0.832,3.328-1.352,4.92l-2.4,7.08h-2.464l-4.496-14.888
	h2.776V65.4z"/>
<path d="M226.512,65.4l1.968,7.56c0.432,1.672,0.832,3.2,1.112,4.752h0.096c0.336-1.512,0.832-3.112,1.32-4.72l2.432-7.592h2.28
	l2.304,7.456c0.552,1.784,0.984,3.344,1.32,4.856h0.096c0.24-1.512,0.648-3.08,1.144-4.832l2.12-7.488h2.68l-4.8,14.888h-2.464
	l-2.288-7.096c-0.52-1.656-0.952-3.144-1.32-4.888h-0.064c-0.368,1.784-0.832,3.328-1.352,4.92l-2.4,7.08h-2.456l-4.496-14.888
	h2.768V65.4z"/>
<path d="M246.192,78.696c0-1.144,0.768-1.936,1.84-1.936s1.816,0.8,1.816,1.936c0,1.112-0.704,1.936-1.84,1.936
	C246.928,80.632,246.192,79.808,246.192,78.696z"/>
<g>
	<rect x="461.328" y="70.328" style="fill:#FFFFFF;" width="23" height="4"/>
	<polygon style="fill:#FFFFFF;" points="474.592,84.256 471.752,81.432 480.856,72.328 471.752,63.224 474.592,60.4 486.512,72.328 
			"/>
</g>
<polygon style="fill:#848484;" points="429.824,67.312 422.168,77.216 414.512,67.312 "/>
<path style="fill:#FFFFFF;" d="M492,119.104v328H20v-328L492,119.104 M496,115.104H16v336h480V115.104L496,115.104z"/>
<path d="M80.712,286.304l119.584-55.552v26.408l-90.432,39.608v0.504l90.432,39.608v26.408L80.712,307.736
	C80.712,307.736,80.712,286.304,80.712,286.304z"/>
<path d="M218.76,373.256l53.32-180.632h25.16l-53.32,180.632H218.76z"/>
<path d="M431.288,308.472L311.704,363.28v-26.408l92.432-39.608v-0.504l-92.432-39.608v-26.408l119.584,54.808L431.288,308.472
	L431.288,308.472z"/>
<g>
</g>
<g>
</g>
<g>
</g>
<g>
</g>
<g>
</g>
<g>
</g>
<g>
</g>
<g>
</g>
<g>
</g>
<g>
</g>
<g>
</g>
<g>
</g>
<g>
</g>
<g>
</g>
<g>
</g>
</svg>
