<svg width="57" height="57" viewBox="0 0 57 57" fill="none" xmlns="http://www.w3.org/2000/svg">
<circle cx="28.5" cy="28.5" r="28.5" fill="#A3A3A3" fill-opacity="0.7"/>
<path d="M25.6582 30.0293C25.6582 32.5371 25.2363 34.7285 24.3926 36.6035C23.5488 38.4668 22.3535 39.8906 20.8066 40.875C19.2598 41.8594 17.4551 42.3516 15.3926 42.3516C13.377 42.3516 11.5898 41.8594 10.0312 40.875C8.47266 39.8789 7.25977 38.4668 6.39258 36.6387C5.53711 34.7988 5.09766 32.6719 5.07422 30.2578V28.4121C5.07422 25.9512 5.50195 23.7773 6.35742 21.8906C7.21289 20.0039 8.41992 18.5625 9.97852 17.5664C11.5488 16.5586 13.3418 16.0547 15.3574 16.0547C17.4082 16.0547 19.2129 16.5527 20.7715 17.5488C22.3418 18.5332 23.5488 19.9688 24.3926 21.8555C25.2363 23.7305 25.6582 25.916 25.6582 28.4121V30.0293ZM22.3008 28.377C22.3008 25.3418 21.6914 23.0156 20.4727 21.3984C19.2539 19.7695 17.5488 18.9551 15.3574 18.9551C13.2246 18.9551 11.543 19.7695 10.3125 21.3984C9.09375 23.0156 8.4668 25.2656 8.43164 28.1484V30.0293C8.43164 32.9707 9.04688 35.2852 10.2773 36.9727C11.5195 38.6484 13.2246 39.4863 15.3926 39.4863C17.5723 39.4863 19.2598 38.6953 20.4551 37.1133C21.6504 35.5195 22.2656 33.2402 22.3008 30.2754V28.377Z" fill="#293844"/>
<path d="M46.4375 30.1699H35.3457V39.2402H48.2305V42H31.9707V16.4062H48.0547V19.1836H35.3457V27.4102H46.4375V30.1699Z" fill="#FF7043"/>
<rect x="17" y="5" width="22" height="1" fill="#FF7043"/>
<rect x="17" y="51" width="22" height="1" fill="#293844"/>
</svg>
