<svg width="244" height="41" viewBox="0 0 244 41" fill="none" xmlns="http://www.w3.org/2000/svg">
<g filter="url(#filter0_d)">
<path d="M1.62 14.0714C1.62 11.7857 1.98 9.79763 2.7 8.10716C3.444 6.41668 4.404 5.01192 5.58 3.89287C6.756 2.77382 8.052 1.94049 9.468 1.39287C10.908 0.845251 12.336 0.571442 13.752 0.571442C15.696 0.571442 17.424 0.928585 18.936 1.64287C20.448 2.35716 21.72 3.33335 22.752 4.57144C23.784 5.78573 24.564 7.2143 25.092 8.85716C25.62 10.5 25.884 12.2381 25.884 14.0714C25.884 16.1429 25.56 18.0119 24.912 19.6786C24.264 21.3214 23.376 22.7381 22.248 23.9286C21.144 25.0953 19.86 26 18.396 26.6429C16.932 27.2619 15.384 27.5714 13.752 27.5714C12.072 27.5714 10.488 27.2619 9 26.6429C7.536 26.0238 6.25199 25.1429 5.14799 24C4.06799 22.8333 3.204 21.4167 2.556 19.75C1.932 18.0833 1.62 16.1905 1.62 14.0714ZM5.292 14.0714C5.292 15.6905 5.496 17.1667 5.904 18.5C6.336 19.8333 6.924 20.9881 7.668 21.9643C8.436 22.9167 9.336 23.6667 10.368 24.2143C11.4 24.7381 12.528 25 13.752 25C15.024 25 16.176 24.7143 17.208 24.1429C18.264 23.5714 19.152 22.7976 19.872 21.8214C20.616 20.8453 21.192 19.6905 21.6 18.3572C22.008 17.0238 22.212 15.5953 22.212 14.0714C22.212 12.4048 21.984 10.9048 21.528 9.57144C21.096 8.2143 20.496 7.05954 19.728 6.10716C18.96 5.15477 18.06 4.42858 17.028 3.92858C15.996 3.42858 14.904 3.17858 13.752 3.17858C12.6 3.17858 11.508 3.42858 10.476 3.92858C9.444 4.42858 8.544 5.15477 7.776 6.10716C7.008 7.05954 6.396 8.2143 5.94 9.57144C5.508 10.9048 5.292 12.4048 5.292 14.0714ZM111.816 1.10716H126.72V3.67858H115.236V24.5H127.26V27.0714H111.816V1.10716ZM125.496 12.2143V14.7143H116.604C116.868 14.0238 117.228 13.4405 117.684 12.9643C118.164 12.4643 118.836 12.2143 119.7 12.2143H125.496Z" fill="#FF7043"/>
<path d="M39.1326 27.0714H35.8566V0H39.1326V27.0714ZM60.5492 15.75C60.6212 15.0595 60.5732 14.4167 60.4052 13.8214C60.2372 13.2262 59.9732 12.7024 59.6132 12.25C59.2772 11.7976 58.8572 11.4524 58.3532 11.2143C57.8492 10.9524 57.3092 10.8214 56.7332 10.8214C55.2212 10.8214 53.9852 11.4167 53.0252 12.6071C52.0892 13.7976 51.6212 15.5 51.6212 17.7143C51.6212 18.7857 51.7652 19.7619 52.0532 20.6429C52.3412 21.5 52.7372 22.25 53.2412 22.8929C53.7692 23.5119 54.3812 24 55.0772 24.3571C55.7732 24.6905 56.5292 24.8571 57.3452 24.8571C58.1852 24.8571 58.9652 24.7738 59.6852 24.6071C60.4292 24.4405 61.3172 24.0952 62.3492 23.5714L63.2492 25.9286C62.0972 26.5238 60.9812 26.9167 59.9012 27.1071C58.8212 27.3214 57.8492 27.4286 56.9852 27.4286C55.6652 27.4286 54.4652 27.1905 53.3852 26.7143C52.3052 26.2143 51.3812 25.5357 50.6132 24.6786C49.8692 23.7976 49.2932 22.7619 48.8852 21.5714C48.4772 20.381 48.2732 19.0833 48.2732 17.6786C48.2732 16.2262 48.4772 14.9286 48.8852 13.7857C49.2932 12.619 49.8812 11.631 50.6492 10.8214C51.4172 9.9881 52.3412 9.35714 53.4212 8.92857C54.5012 8.47619 55.7252 8.25 57.0932 8.25C58.3172 8.25 59.4092 8.52381 60.3692 9.07143C61.3292 9.61905 62.0972 10.3571 62.6732 11.2857C63.2492 12.1905 63.5972 13.2381 63.7172 14.4286C63.8612 15.619 63.7412 16.8571 63.3572 18.1429H52.9172C53.1812 17.4524 53.5412 16.881 53.9972 16.4286C54.4532 15.9762 55.1132 15.75 55.9772 15.75H60.5492ZM72.1032 17.9286C72.1032 16.4762 72.3312 15.1548 72.7872 13.9643C73.2672 12.7738 73.9272 11.7619 74.7672 10.9286C75.6312 10.0714 76.6392 9.41667 77.7912 8.96429C78.9672 8.4881 80.2512 8.25 81.6432 8.25C82.6512 8.25 83.6472 8.34524 84.6312 8.53572C85.6392 8.70238 86.7672 8.9881 88.0152 9.39286V27.0714C88.0152 28.4048 87.8112 29.619 87.4032 30.7143C87.0192 31.8095 86.4552 32.75 85.7112 33.5357C84.9672 34.3214 84.0672 34.9286 83.0112 35.3571C81.9792 35.7857 80.8032 36 79.4832 36C78.5472 36 77.5272 35.9048 76.4232 35.7143C75.3192 35.5238 74.1672 35.119 72.9672 34.5L73.9032 32.0714C74.9352 32.5714 75.8832 32.9167 76.7472 33.1071C77.6112 33.3214 78.4272 33.4286 79.1952 33.4286C79.9392 33.4286 80.6472 33.3095 81.3192 33.0714C81.9912 32.8333 82.5792 32.4643 83.0832 31.9643C83.5872 31.4881 83.9832 30.869 84.2712 30.1071C84.5832 29.369 84.7392 28.4881 84.7392 27.4643V11.2143C84.1872 11.0714 83.6712 10.9762 83.1912 10.9286C82.7112 10.8571 82.1952 10.8214 81.6432 10.8214C79.8432 10.8214 78.3912 11.4286 77.2872 12.6429C76.1832 13.8571 75.6312 15.619 75.6312 17.9286C75.6312 18.9286 75.7272 19.869 75.9192 20.75C76.1352 21.6071 76.4472 22.3452 76.8552 22.9643C77.2872 23.5595 77.8032 24.0119 78.4032 24.3214C79.0272 24.631 79.7592 24.7381 80.5992 24.6429C81.1272 24.5952 81.6312 24.6667 82.1112 24.8571C82.6152 25.0476 83.0832 25.4167 83.5152 25.9643C82.9152 26.369 82.3032 26.6786 81.6792 26.8929C81.0552 27.1071 80.4672 27.2381 79.9152 27.2857C78.8352 27.381 77.8152 27.2262 76.8552 26.8214C75.9192 26.3929 75.0912 25.7619 74.3712 24.9286C73.6752 24.0952 73.1232 23.0833 72.7152 21.8929C72.3072 20.7024 72.1032 19.381 72.1032 17.9286Z" fill="#D7D7D7"/>
<path d="M138.749 8.60714C139.133 9.0119 139.397 9.45238 139.541 9.92857C139.709 10.381 139.853 10.8929 139.973 11.4643V12.1071L140.261 11.4643C140.741 10.5595 141.413 9.82143 142.277 9.25C143.141 8.65476 144.065 8.35714 145.049 8.35714C145.529 8.35714 146.117 8.45238 146.813 8.64286L146.381 11.4286C145.997 11.3333 145.661 11.2738 145.373 11.25C145.109 11.2262 144.869 11.2143 144.653 11.2143C144.101 11.2143 143.549 11.3333 142.997 11.5714C142.445 11.7857 141.953 12.131 141.521 12.6071C141.089 13.0833 140.729 13.7024 140.441 14.4643C140.177 15.2262 140.045 16.1429 140.045 17.2143V27.0714H136.841V14.8571C136.841 13.7619 136.793 12.6548 136.697 11.5357C136.601 10.4167 136.457 9.44048 136.265 8.60714H138.749ZM154.252 23.5714C155.164 24.0238 156.076 24.3571 156.988 24.5714C157.924 24.7619 158.776 24.8571 159.544 24.8571C160.624 24.8571 161.428 24.6071 161.956 24.1071C162.484 23.6071 162.748 22.9643 162.748 22.1786C162.748 21.5357 162.532 21 162.1 20.5714C161.668 20.1429 161.128 19.7619 160.48 19.4286C159.832 19.0714 159.136 18.7262 158.392 18.3929C157.648 18.0595 156.952 17.6667 156.304 17.2143C155.656 16.7619 155.116 16.2143 154.684 15.5714C154.252 14.9048 154.036 14.0714 154.036 13.0714C154.036 12.5 154.156 11.9286 154.396 11.3571C154.66 10.7857 155.032 10.2738 155.512 9.82143C155.992 9.36905 156.592 9 157.312 8.71429C158.032 8.42857 158.86 8.28571 159.796 8.28571C160.492 8.28571 161.248 8.35714 162.064 8.5C162.88 8.61905 163.792 8.85714 164.8 9.21429L163.972 11.5357C163.204 11.2738 162.496 11.0952 161.848 11C161.224 10.881 160.66 10.8214 160.156 10.8214C159.316 10.8214 158.62 11.0119 158.068 11.3929C157.54 11.7738 157.276 12.3333 157.276 13.0714C157.276 13.7143 157.492 14.25 157.924 14.6786C158.356 15.0833 158.896 15.4643 159.544 15.8214C160.192 16.1548 160.888 16.5 161.632 16.8571C162.376 17.1905 163.072 17.5952 163.72 18.0714C164.368 18.5238 164.908 19.0952 165.34 19.7857C165.772 20.4762 165.988 21.3333 165.988 22.3571C165.988 23.0476 165.82 23.7024 165.484 24.3214C165.172 24.9167 164.728 25.4524 164.152 25.9286C163.6 26.3809 162.964 26.75 162.244 27.0357C161.524 27.2976 160.768 27.4286 159.976 27.4286C159.064 27.4286 158.08 27.3452 157.024 27.1786C155.992 27.0357 154.78 26.619 153.388 25.9286L154.252 23.5714ZM174.376 27.0714V0H177.724V27.0714H174.376ZM186.004 13.6429C186.004 12.8095 185.836 12.131 185.5 11.6071C185.188 11.0833 184.684 10.8214 183.988 10.8214C183.7 10.8214 183.46 10.8571 183.268 10.9286C183.1 10.9762 182.848 11.0357 182.512 11.1071C181.816 11.2738 181.18 11.2857 180.604 11.1429C180.028 11 179.488 10.6667 178.984 10.1429C180.256 9.40476 181.312 8.90476 182.152 8.64286C182.992 8.38095 183.748 8.25 184.42 8.25C185.116 8.25 185.764 8.34524 186.364 8.53571C186.988 8.70238 187.528 9.0119 187.984 9.46429C188.44 9.91667 188.8 10.5119 189.064 11.25C189.328 11.9881 189.46 12.9048 189.46 14V27.0714H186.004V13.6429ZM198.101 17.8214C198.101 16.1786 198.353 14.7619 198.857 13.5714C199.361 12.3571 200.021 11.3571 200.837 10.5714C201.653 9.78571 202.577 9.20238 203.609 8.82143C204.665 8.44048 205.721 8.25 206.777 8.25C208.145 8.25 209.369 8.5 210.449 9C211.529 9.5 212.441 10.1786 213.185 11.0357C213.929 11.8929 214.493 12.9048 214.877 14.0714C215.261 15.2381 215.453 16.4881 215.453 17.8214C215.453 19.369 215.213 20.75 214.733 21.9643C214.277 23.1548 213.653 24.1548 212.861 24.9643C212.069 25.7738 211.145 26.3929 210.089 26.8214C209.033 27.2262 207.929 27.4286 206.777 27.4286C205.577 27.4286 204.449 27.2262 203.393 26.8214C202.337 26.3929 201.413 25.7738 200.621 24.9643C199.853 24.1548 199.241 23.1548 198.785 21.9643C198.329 20.75 198.101 19.369 198.101 17.8214ZM201.665 17.8214C201.665 18.869 201.773 19.8214 201.989 20.6786C202.229 21.5357 202.565 22.2738 202.997 22.8929C203.429 23.5119 203.957 24 204.581 24.3571C205.229 24.6905 205.961 24.8571 206.777 24.8571C207.641 24.8571 208.397 24.6786 209.045 24.3214C209.693 23.9405 210.221 23.4286 210.629 22.7857C211.061 22.1429 211.373 21.3929 211.565 20.5357C211.781 19.6786 211.889 18.7738 211.889 17.8214C211.889 16.631 211.745 15.5952 211.457 14.7143C211.193 13.8333 210.821 13.1071 210.341 12.5357C209.885 11.9643 209.345 11.5357 208.721 11.25C208.097 10.9643 207.449 10.8214 206.777 10.8214C206.081 10.8214 205.421 10.9643 204.797 11.25C204.197 11.5357 203.657 11.9643 203.177 12.5357C202.721 13.1071 202.349 13.8333 202.061 14.7143C201.797 15.5952 201.665 16.631 201.665 17.8214ZM228.932 27.0714L221.948 8.60714H225.548L230.516 23L230.804 23.8929L231.056 23L235.988 8.60714H239.444L232.46 27.0714H228.932Z" fill="#D8D8D8"/>
</g>
<defs>
<filter id="filter0_d" x="0.619995" y="-1" width="247.824" height="46" filterUnits="userSpaceOnUse" color-interpolation-filters="sRGB">
<feFlood flood-opacity="0" result="BackgroundImageFix"/>
<feColorMatrix in="SourceAlpha" type="matrix" values="0 0 0 0 0 0 0 0 0 0 0 0 0 0 0 0 0 0 127 0"/>
<feOffset dx="4" dy="4"/>
<feGaussianBlur stdDeviation="2.5"/>
<feColorMatrix type="matrix" values="0 0 0 0 0 0 0 0 0 0 0 0 0 0 0 0 0 0 0.2 0"/>
<feBlend mode="normal" in2="BackgroundImageFix" result="effect1_dropShadow"/>
<feBlend mode="normal" in="SourceGraphic" in2="effect1_dropShadow" result="shape"/>
</filter>
</defs>
</svg>
