<?xml version="1.0" encoding="iso-8859-1"?>
<!-- Generator: Adobe Illustrator 19.0.0, SVG Export Plug-In . SVG Version: 6.00 Build 0)  -->
<svg version="1.1" id="Layer_1" xmlns="http://www.w3.org/2000/svg" xmlns:xlink="http://www.w3.org/1999/xlink" x="0px" y="0px"
	 viewBox="0 0 512.007 512.007" style="enable-background:new 0 0 512.007 512.007;" xml:space="preserve">
<rect y="99.056" style="fill:#CCCCCC;" width="512" height="368.08"/>
<rect x="15.999" y="115.112" style="fill:#F2F2F2;" width="480" height="336"/>
<path d="M512.007,99.056V73.624c0-15.816-12.936-28.752-28.752-28.752h-368.24H28.759c-15.816,0-28.752,12.936-28.752,28.752v25.432
	H512.007z"/>
<g style="opacity:0.25;">
	<path style="fill:#FFFFFF;" d="M147.047,44.872h-32.024H28.767c-15.816,0-28.752,12.936-28.752,28.752v25.432h115.888
		L147.047,44.872z"/>
</g>
<circle style="fill:#FF6600;" cx="40.543" cy="71.968" r="8.184"/>
<circle style="fill:#848484;" cx="65.103" cy="71.968" r="8.184"/>
<g>
	<circle style="fill:#FFFFFF;" cx="89.663" cy="71.968" r="8.184"/>
	<path style="fill:#FFFFFF;" d="M428.263,86.344H170.887c-7.904,0-14.376-6.472-14.376-14.376l0,0
		c0-7.904,6.472-14.376,14.376-14.376h257.376c7.904,0,14.376,6.472,14.376,14.376l0,0
		C442.639,79.872,436.167,86.344,428.263,86.344z"/>
</g>
<path d="M180.591,65.408l1.968,7.56c0.432,1.672,0.832,3.2,1.112,4.752h0.096c0.336-1.512,0.832-3.112,1.32-4.72l2.432-7.592h2.28
	l2.296,7.456c0.552,1.784,0.984,3.344,1.32,4.856h0.096c0.24-1.512,0.648-3.08,1.144-4.832l2.12-7.488h2.68l-4.8,14.888h-2.464
	l-2.28-7.112c-0.52-1.656-0.952-3.144-1.32-4.888h-0.064c-0.368,1.784-0.832,3.328-1.352,4.92l-2.4,7.08h-2.464L177.815,65.4h2.776
	V65.408z"/>
<path d="M203.559,65.408l1.968,7.56c0.432,1.672,0.832,3.2,1.112,4.752h0.096c0.336-1.512,0.832-3.112,1.32-4.72l2.432-7.592h2.28
	l2.296,7.456c0.552,1.784,0.984,3.344,1.32,4.856h0.096c0.24-1.512,0.648-3.08,1.144-4.832l2.12-7.488h2.68l-4.8,14.888h-2.464
	l-2.28-7.096c-0.52-1.656-0.952-3.144-1.32-4.888h-0.064c-0.368,1.784-0.832,3.328-1.352,4.92l-2.4,7.08h-2.464l-4.496-14.888h2.776
	V65.408z"/>
<path d="M226.527,65.408l1.968,7.56c0.432,1.672,0.832,3.2,1.112,4.752h0.096c0.336-1.512,0.832-3.112,1.32-4.72l2.432-7.592h2.28
	l2.296,7.456c0.552,1.784,0.984,3.344,1.32,4.856h0.096c0.24-1.512,0.648-3.08,1.144-4.832l2.12-7.488h2.68l-4.8,14.888h-2.464
	l-2.28-7.112c-0.52-1.656-0.952-3.144-1.32-4.888h-0.064c-0.368,1.784-0.832,3.328-1.352,4.92l-2.4,7.08h-2.464l-4.488-14.88
	H226.527z"/>
<path d="M246.207,78.704c0-1.144,0.768-1.936,1.84-1.936s1.816,0.8,1.816,1.936c0,1.112-0.704,1.936-1.84,1.936
	C246.943,80.64,246.207,79.816,246.207,78.704z"/>
<g>
	<rect x="461.335" y="70.336" style="fill:#FFFFFF;" width="23" height="4"/>
	<polygon style="fill:#FFFFFF;" points="474.607,84.264 471.759,81.44 480.871,72.336 471.759,63.232 474.607,60.408 
		486.527,72.336 	"/>
</g>
<polygon style="fill:#848484;" points="429.831,67.32 422.175,77.224 414.519,67.32 "/>
<path style="fill:#FFFFFF;" d="M492.007,119.112v328h-472v-328L492.007,119.112 M496.007,115.112h-480v336h480V115.112
	L496.007,115.112z"/>
<polygon points="132.527,238.6 379.471,238.6 255.999,155.816 "/>
<circle style="fill:#FFFFFF;" cx="255.999" cy="203.288" r="13.632"/>
<rect x="123.327" y="386.856" width="265.44" height="25.872"/>
<path d="M252.247,355.04v-10.608c-6.096-0.112-12.4-2-16.072-4.624l2.52-7.04c3.784,2.528,9.248,4.512,15.128,4.512
	c7.456,0,12.504-4.304,12.504-10.296c0-5.776-4.096-9.352-11.872-12.504c-10.712-4.2-17.328-9.032-17.328-18.176
	c0-8.72,6.2-15.336,15.864-16.92v-10.608h6.504v10.184c6.304,0.208,10.616,1.888,13.664,3.68l-2.632,6.936
	c-2.2-1.264-6.504-3.568-13.232-3.568c-8.096,0-11.136,4.832-11.136,9.032c0,5.464,3.888,8.192,13.032,11.976
	c10.824,4.416,16.28,9.88,16.28,19.224c0,8.304-5.776,16.072-16.6,17.864v10.92h-6.624V355.04z"/>
<g>
	<rect x="150.383" y="261.824" style="fill:#FF6600;" width="25.872" height="101.696"/>
	<rect x="190.479" y="261.824" style="fill:#FF6600;" width="25.872" height="101.696"/>
	<rect x="295.647" y="261.824" style="fill:#FF6600;" width="25.872" height="101.696"/>
	<rect x="335.751" y="261.824" style="fill:#FF6600;" width="25.872" height="101.696"/>
</g>
<g>
</g>
<g>
</g>
<g>
</g>
<g>
</g>
<g>
</g>
<g>
</g>
<g>
</g>
<g>
</g>
<g>
</g>
<g>
</g>
<g>
</g>
<g>
</g>
<g>
</g>
<g>
</g>
<g>
</g>
</svg>
